<svg width="207" height="83" viewBox="0 0 207 83" fill="none" xmlns="http://www.w3.org/2000/svg">
<path d="M45.1694 82.9999V40.3999H59.0894C62.4494 40.3999 65.3894 40.9599 67.9094 42.0799C70.4294 43.1999 72.5094 44.7199 74.1494 46.6399C75.8294 48.5599 77.0894 50.8199 77.9294 53.4199C78.7694 55.9799 79.1894 58.7199 79.1894 61.6399C79.1894 64.8799 78.7094 67.8199 77.7494 70.4599C76.8294 73.0599 75.4894 75.2999 73.7294 77.1799C72.0094 79.0199 69.9094 80.4599 67.4294 81.4999C64.9494 82.4999 62.1694 82.9999 59.0894 82.9999H45.1694ZM77.0894 61.6399C77.0894 58.8399 76.6894 56.2599 75.8894 53.8999C75.1294 51.5399 73.9694 49.4999 72.4094 47.7799C70.8894 46.0599 69.0094 44.7199 66.7694 43.7599C64.5294 42.7999 61.9694 42.3199 59.0894 42.3199H47.2694V81.0799H59.0894C62.0494 81.0799 64.6494 80.5999 66.8894 79.6399C69.1294 78.6399 71.0094 77.2799 72.5294 75.5599C74.0494 73.7999 75.1894 71.7399 75.9494 69.3799C76.7094 66.9799 77.0894 64.3999 77.0894 61.6399Z" fill="#35342E"/>
<path d="M116.024 81.0799V82.9999H87.8843V40.3999H115.484V42.3199H89.9843V60.2599H112.304V62.1799H89.9843V81.0799H116.024Z" fill="#35342E"/>
<path d="M152.938 81.0799V82.9999H124.798V40.3999H152.398V42.3199H126.898V60.2599H149.218V62.1799H126.898V81.0799H152.938Z" fill="#35342E"/>
<path d="M161.712 82.9999V40.3999H179.172C180.932 40.3999 182.552 40.7799 184.032 41.5399C185.512 42.2999 186.792 43.2999 187.872 44.5399C188.952 45.7399 189.792 47.1199 190.392 48.6799C191.032 50.2399 191.352 51.8199 191.352 53.4199C191.352 55.0999 191.052 56.7399 190.452 58.3399C189.892 59.8999 189.092 61.2999 188.052 62.5399C187.012 63.7399 185.772 64.7199 184.332 65.4799C182.892 66.1999 181.292 66.5599 179.532 66.5599H163.812V82.9999H161.712ZM163.812 64.6399H179.472C180.992 64.6399 182.352 64.3199 183.552 63.6799C184.752 63.0399 185.772 62.1999 186.612 61.1599C187.452 60.0799 188.092 58.8799 188.532 57.5599C189.012 56.1999 189.252 54.8199 189.252 53.4199C189.252 51.9799 188.972 50.5999 188.412 49.2799C187.892 47.9199 187.172 46.7399 186.252 45.7399C185.332 44.6999 184.252 43.8799 183.012 43.2799C181.812 42.6399 180.512 42.3199 179.112 42.3199H163.812V64.6399Z" fill="#35342E"/>
<path d="M0 27.0001V5.70008H8.76C9.66 5.70008 10.49 5.89008 11.25 6.27008C12.01 6.65008 12.66 7.16008 13.2 7.80008C13.76 8.42008 14.19 9.13008 14.49 9.93008C14.81 10.7101 14.97 11.5001 14.97 12.3001C14.97 13.1601 14.82 13.9901 14.52 14.7901C14.24 15.5901 13.83 16.3001 13.29 16.9201C12.77 17.5401 12.14 18.0401 11.4 18.4201C10.66 18.7801 9.84 18.9601 8.94 18.9601H1.53V27.0001H0ZM1.53 17.5501H8.88C9.58 17.5501 10.21 17.4101 10.77 17.1301C11.33 16.8301 11.8 16.4401 12.18 15.9601C12.58 15.4601 12.88 14.9001 13.08 14.2801C13.3 13.6401 13.41 12.9801 13.41 12.3001C13.41 11.6001 13.28 10.9401 13.02 10.3201C12.78 9.68008 12.44 9.12008 12 8.64008C11.58 8.16008 11.08 7.78008 10.5 7.50008C9.94 7.22008 9.34 7.08008 8.7 7.08008H1.53V17.5501Z" fill="#35342E"/>
<path d="M32.8228 25.6201V27.0001H18.6328V5.70008H32.5528V7.08008H20.1628V15.4501H30.9928V16.7701H20.1628V25.6201H32.8228Z" fill="#35342E"/>
<path d="M37.002 27.0001V5.70008H45.852C46.752 5.70008 47.582 5.89008 48.342 6.27008C49.102 6.65008 49.752 7.16008 50.292 7.80008C50.852 8.42008 51.282 9.13008 51.582 9.93008C51.902 10.7101 52.062 11.5001 52.062 12.3001C52.062 13.0801 51.942 13.8401 51.702 14.5801C51.462 15.3001 51.122 15.9501 50.682 16.5301C50.242 17.1101 49.712 17.5901 49.092 17.9701C48.472 18.3501 47.792 18.6001 47.052 18.7201L52.362 27.0001H50.592L45.432 18.9601H38.532V27.0001H37.002ZM38.532 17.5501H46.002C46.682 17.5501 47.302 17.4001 47.862 17.1001C48.422 16.8001 48.902 16.4101 49.302 15.9301C49.702 15.4301 50.002 14.8701 50.202 14.2501C50.422 13.6101 50.532 12.9601 50.532 12.3001C50.532 11.6201 50.402 10.9701 50.142 10.3501C49.902 9.71008 49.562 9.15008 49.122 8.67008C48.702 8.19008 48.202 7.81008 47.622 7.53008C47.062 7.23008 46.452 7.08008 45.792 7.08008H38.532V17.5501Z" fill="#35342E"/>
<path d="M56.4844 27.0001V5.70008H70.3444V7.08008H58.0144V15.5401H68.4844V16.8601H58.0144V27.0001H56.4844Z" fill="#35342E"/>
<path d="M88.4869 25.6201V27.0001H74.2969V5.70008H88.2169V7.08008H75.8269V15.4501H86.6569V16.7701H75.8269V25.6201H88.4869Z" fill="#35342E"/>
<path d="M90.7566 16.2001C90.7566 14.9201 90.9766 13.6501 91.4166 12.3901C91.8766 11.1101 92.5366 9.97008 93.3966 8.97008C94.2566 7.97008 95.3066 7.16008 96.5466 6.54008C97.8066 5.90008 99.2366 5.58008 100.837 5.58008C102.737 5.58008 104.357 6.02008 105.697 6.90008C107.037 7.76008 108.037 8.87008 108.697 10.2301L107.437 10.9501C107.057 10.2101 106.607 9.59008 106.087 9.09008C105.587 8.59008 105.037 8.19008 104.437 7.89008C103.857 7.57008 103.247 7.34008 102.607 7.20008C101.967 7.06008 101.337 6.99008 100.717 6.99008C99.3566 6.99008 98.1566 7.27008 97.1166 7.83008C96.0766 8.37008 95.1966 9.08008 94.4766 9.96008C93.7566 10.8401 93.2066 11.8401 92.8266 12.9601C92.4666 14.0601 92.2866 15.1701 92.2866 16.2901C92.2866 17.5501 92.5066 18.7501 92.9466 19.8901C93.3866 21.0301 93.9866 22.0401 94.7466 22.9201C95.5066 23.7801 96.4066 24.4701 97.4466 24.9901C98.4866 25.5101 99.6066 25.7701 100.807 25.7701C101.447 25.7701 102.107 25.6901 102.787 25.5301C103.467 25.3701 104.117 25.1201 104.737 24.7801C105.357 24.4401 105.937 24.0101 106.477 23.4901C107.017 22.9501 107.467 22.3201 107.827 21.6001L109.147 22.2301C108.787 23.0301 108.297 23.7401 107.677 24.3601C107.057 24.9801 106.367 25.5001 105.607 25.9201C104.847 26.3401 104.037 26.6601 103.177 26.8801C102.337 27.0801 101.507 27.1801 100.687 27.1801C99.2266 27.1801 97.8866 26.8601 96.6666 26.2201C95.4666 25.5801 94.4266 24.7501 93.5466 23.7301C92.6666 22.6901 91.9766 21.5201 91.4766 20.2201C90.9966 18.9001 90.7566 17.5601 90.7566 16.2001Z" fill="#35342E"/>
<path d="M127.614 7.08008H119.814V27.0001H118.284V7.08008H110.484V5.70008H127.614V7.08008Z" fill="#35342E"/>
<path d="M128.462 16.2001C128.462 14.9201 128.682 13.6501 129.122 12.3901C129.582 11.1101 130.242 9.97008 131.102 8.97008C131.962 7.97008 133.012 7.16008 134.252 6.54008C135.512 5.90008 136.942 5.58008 138.542 5.58008C140.442 5.58008 142.062 6.02008 143.402 6.90008C144.742 7.76008 145.742 8.87008 146.402 10.2301L145.142 10.9501C144.762 10.2101 144.312 9.59008 143.792 9.09008C143.292 8.59008 142.742 8.19008 142.142 7.89008C141.562 7.57008 140.952 7.34008 140.312 7.20008C139.672 7.06008 139.042 6.99008 138.422 6.99008C137.062 6.99008 135.862 7.27008 134.822 7.83008C133.782 8.37008 132.902 9.08008 132.182 9.96008C131.462 10.8401 130.912 11.8401 130.532 12.9601C130.172 14.0601 129.992 15.1701 129.992 16.2901C129.992 17.5501 130.212 18.7501 130.652 19.8901C131.092 21.0301 131.692 22.0401 132.452 22.9201C133.212 23.7801 134.112 24.4701 135.152 24.9901C136.192 25.5101 137.312 25.7701 138.512 25.7701C139.152 25.7701 139.812 25.6901 140.492 25.5301C141.172 25.3701 141.822 25.1201 142.442 24.7801C143.062 24.4401 143.642 24.0101 144.182 23.4901C144.722 22.9501 145.172 22.3201 145.532 21.6001L146.852 22.2301C146.492 23.0301 146.002 23.7401 145.382 24.3601C144.762 24.9801 144.072 25.5001 143.312 25.9201C142.552 26.3401 141.742 26.6601 140.882 26.8801C140.042 27.0801 139.212 27.1801 138.392 27.1801C136.932 27.1801 135.592 26.8601 134.372 26.2201C133.172 25.5801 132.132 24.7501 131.252 23.7301C130.372 22.6901 129.682 21.5201 129.182 20.2201C128.702 18.9001 128.462 17.5601 128.462 16.2001Z" fill="#35342E"/>
<path d="M167.145 5.70008V27.0001H165.615V16.8001H152.175V27.0001H150.645V5.70008H152.175V15.4201H165.615V5.70008H167.145Z" fill="#35342E"/>
<path d="M179.395 5.70008H180.715L189.715 27.0001H188.095L185.125 19.9801H174.955L171.985 27.0001H170.335L179.395 5.70008ZM184.705 18.7201L180.055 7.56008L175.315 18.7201H184.705Z" fill="#35342E"/>
<path d="M199.459 14.44C198.419 14.44 197.453 14.26 196.559 13.9C195.666 13.5267 194.893 13.02 194.239 12.38C193.586 11.7267 193.073 10.96 192.699 10.08C192.339 9.2 192.159 8.24 192.159 7.2C192.159 6.17333 192.339 5.22 192.699 4.34C193.073 3.46 193.586 2.7 194.239 2.06C194.893 1.42 195.666 0.92 196.559 0.559999C197.453 0.186666 198.419 0 199.459 0C200.513 0 201.486 0.186666 202.379 0.559999C203.273 0.92 204.046 1.42 204.699 2.06C205.353 2.7 205.859 3.46 206.219 4.34C206.593 5.22 206.779 6.17333 206.779 7.2C206.779 8.24 206.593 9.2 206.219 10.08C205.859 10.96 205.353 11.7267 204.699 12.38C204.046 13.02 203.273 13.5267 202.379 13.9C201.486 14.26 200.513 14.44 199.459 14.44ZM199.459 13.88C200.406 13.88 201.286 13.72 202.099 13.4C202.926 13.08 203.639 12.6267 204.239 12.04C204.839 11.4533 205.313 10.7533 205.659 9.94C206.006 9.11333 206.179 8.2 206.179 7.2C206.179 6.25333 206.013 5.38 205.679 4.58C205.346 3.76667 204.879 3.06667 204.279 2.48C203.679 1.88 202.966 1.41333 202.139 1.08C201.326 0.733333 200.433 0.559999 199.459 0.559999C198.499 0.559999 197.606 0.733333 196.779 1.08C195.966 1.41333 195.259 1.88 194.659 2.48C194.073 3.06667 193.613 3.76667 193.279 4.58C192.946 5.38 192.779 6.25333 192.779 7.2C192.779 8.16 192.946 9.04667 193.279 9.86C193.613 10.6733 194.073 11.38 194.659 11.98C195.259 12.5667 195.966 13.0333 196.779 13.38C197.606 13.7133 198.499 13.88 199.459 13.88ZM196.479 2.68H200.279C200.666 2.68 201.019 2.76667 201.339 2.94C201.659 3.1 201.933 3.31333 202.159 3.58C202.399 3.84667 202.586 4.15334 202.719 4.5C202.853 4.83333 202.919 5.17333 202.919 5.52C202.919 5.85333 202.866 6.17333 202.759 6.48C202.653 6.78667 202.506 7.06667 202.319 7.32C202.133 7.56 201.906 7.76667 201.639 7.94C201.373 8.1 201.079 8.2 200.759 8.24L203.019 11.8H202.119L199.919 8.34H197.279V11.8H196.479V2.68ZM200.299 7.62C200.899 7.62 201.353 7.41333 201.659 7C201.979 6.58667 202.139 6.09333 202.139 5.52C202.139 4.92 201.959 4.42667 201.599 4.04C201.239 3.64 200.779 3.44 200.219 3.44H197.279V7.62H200.299Z" fill="#35342E"/>
</svg>
