<svg width="207" height="83" viewBox="0 0 207 83" fill="none" xmlns="http://www.w3.org/2000/svg">
<path d="M25.9702 82.9999V40.3999H39.8902C43.2502 40.3999 46.1902 40.9599 48.7102 42.0799C51.2302 43.1999 53.3102 44.7199 54.9502 46.6399C56.6302 48.5599 57.8902 50.8199 58.7302 53.4199C59.5702 55.9799 59.9902 58.7199 59.9902 61.6399C59.9902 64.8799 59.5102 67.8199 58.5502 70.4599C57.6302 73.0599 56.2902 75.2999 54.5302 77.1799C52.8102 79.0199 50.7102 80.4599 48.2302 81.4999C45.7502 82.4999 42.9702 82.9999 39.8902 82.9999H25.9702ZM57.8902 61.6399C57.8902 58.8399 57.4902 56.2599 56.6902 53.8999C55.9302 51.5399 54.7702 49.4999 53.2102 47.7799C51.6902 46.0599 49.8102 44.7199 47.5702 43.7599C45.3302 42.7999 42.7702 42.3199 39.8902 42.3199H28.0702V81.0799H39.8902C42.8502 81.0799 45.4502 80.5999 47.6902 79.6399C49.9302 78.6399 51.8102 77.2799 53.3302 75.5599C54.8502 73.7999 55.9902 71.7399 56.7502 69.3799C57.5102 66.9799 57.8902 64.3999 57.8902 61.6399Z" fill="#35342E"/>
<path d="M96.8251 81.0799V82.9999H68.6851V40.3999H96.2851V42.3199H70.7851V60.2599H93.1051V62.1799H70.7851V81.0799H96.8251Z" fill="#35342E"/>
<path d="M105.599 82.9999V40.3999H123.119C124.879 40.3999 126.499 40.7799 127.979 41.5399C129.499 42.2999 130.799 43.2999 131.879 44.5399C132.959 45.7399 133.799 47.1199 134.399 48.6799C134.999 50.2399 135.299 51.8199 135.299 53.4199C135.299 55.0599 135.039 56.6199 134.519 58.0999C134.039 59.5799 133.339 60.8999 132.419 62.0599C131.499 63.2199 130.399 64.1799 129.119 64.9399C127.839 65.6999 126.419 66.1599 124.859 66.3199L135.539 82.9999H133.139L122.579 66.5599H107.699V82.9999H105.599ZM107.699 64.6399H123.479C124.959 64.6399 126.299 64.3199 127.499 63.6799C128.739 63.0399 129.779 62.1999 130.619 61.1599C131.459 60.1199 132.099 58.9199 132.539 57.5599C133.019 56.1999 133.259 54.8199 133.259 53.4199C133.259 51.9799 132.979 50.5999 132.419 49.2799C131.899 47.9199 131.179 46.7399 130.259 45.7399C129.339 44.6999 128.259 43.8799 127.019 43.2799C125.779 42.6399 124.459 42.3199 123.059 42.3199H107.699V64.6399Z" fill="#35342E"/>
<path d="M183.571 82.9999V44.4799L165.691 74.7199H164.251L146.371 44.4799V82.9999H144.271V40.3999H146.191L164.971 72.1399L183.751 40.3999H185.671V82.9999H183.571Z" fill="#35342E"/>
<path d="M0 27.0001V5.70008H8.76C9.66 5.70008 10.49 5.89008 11.25 6.27008C12.01 6.65008 12.66 7.16008 13.2 7.80008C13.76 8.42008 14.19 9.13008 14.49 9.93008C14.81 10.7101 14.97 11.5001 14.97 12.3001C14.97 13.1601 14.82 13.9901 14.52 14.7901C14.24 15.5901 13.83 16.3001 13.29 16.9201C12.77 17.5401 12.14 18.0401 11.4 18.4201C10.66 18.7801 9.84 18.9601 8.94 18.9601H1.53V27.0001H0ZM1.53 17.5501H8.88C9.58 17.5501 10.21 17.4101 10.77 17.1301C11.33 16.8301 11.8 16.4401 12.18 15.9601C12.58 15.4601 12.88 14.9001 13.08 14.2801C13.3 13.6401 13.41 12.9801 13.41 12.3001C13.41 11.6001 13.28 10.9401 13.02 10.3201C12.78 9.68008 12.44 9.12008 12 8.64008C11.58 8.16008 11.08 7.78008 10.5 7.50008C9.94 7.22008 9.34 7.08008 8.7 7.08008H1.53V17.5501Z" fill="#35342E"/>
<path d="M32.8228 25.6201V27.0001H18.6328V5.70008H32.5528V7.08008H20.1628V15.4501H30.9928V16.7701H20.1628V25.6201H32.8228Z" fill="#35342E"/>
<path d="M37.002 27.0001V5.70008H45.852C46.752 5.70008 47.582 5.89008 48.342 6.27008C49.102 6.65008 49.752 7.16008 50.292 7.80008C50.852 8.42008 51.282 9.13008 51.582 9.93008C51.902 10.7101 52.062 11.5001 52.062 12.3001C52.062 13.0801 51.942 13.8401 51.702 14.5801C51.462 15.3001 51.122 15.9501 50.682 16.5301C50.242 17.1101 49.712 17.5901 49.092 17.9701C48.472 18.3501 47.792 18.6001 47.052 18.7201L52.362 27.0001H50.592L45.432 18.9601H38.532V27.0001H37.002ZM38.532 17.5501H46.002C46.682 17.5501 47.302 17.4001 47.862 17.1001C48.422 16.8001 48.902 16.4101 49.302 15.9301C49.702 15.4301 50.002 14.8701 50.202 14.2501C50.422 13.6101 50.532 12.9601 50.532 12.3001C50.532 11.6201 50.402 10.9701 50.142 10.3501C49.902 9.71008 49.562 9.15008 49.122 8.67008C48.702 8.19008 48.202 7.81008 47.622 7.53008C47.062 7.23008 46.452 7.08008 45.792 7.08008H38.532V17.5501Z" fill="#35342E"/>
<path d="M56.4844 27.0001V5.70008H70.3444V7.08008H58.0144V15.5401H68.4844V16.8601H58.0144V27.0001H56.4844Z" fill="#35342E"/>
<path d="M88.4869 25.6201V27.0001H74.2969V5.70008H88.2169V7.08008H75.8269V15.4501H86.6569V16.7701H75.8269V25.6201H88.4869Z" fill="#35342E"/>
<path d="M90.7566 16.2001C90.7566 14.9201 90.9766 13.6501 91.4166 12.3901C91.8766 11.1101 92.5366 9.97008 93.3966 8.97008C94.2566 7.97008 95.3066 7.16008 96.5466 6.54008C97.8066 5.90008 99.2366 5.58008 100.837 5.58008C102.737 5.58008 104.357 6.02008 105.697 6.90008C107.037 7.76008 108.037 8.87008 108.697 10.2301L107.437 10.9501C107.057 10.2101 106.607 9.59008 106.087 9.09008C105.587 8.59008 105.037 8.19008 104.437 7.89008C103.857 7.57008 103.247 7.34008 102.607 7.20008C101.967 7.06008 101.337 6.99008 100.717 6.99008C99.3566 6.99008 98.1566 7.27008 97.1166 7.83008C96.0766 8.37008 95.1966 9.08008 94.4766 9.96008C93.7566 10.8401 93.2066 11.8401 92.8266 12.9601C92.4666 14.0601 92.2866 15.1701 92.2866 16.2901C92.2866 17.5501 92.5066 18.7501 92.9466 19.8901C93.3866 21.0301 93.9866 22.0401 94.7466 22.9201C95.5066 23.7801 96.4066 24.4701 97.4466 24.9901C98.4866 25.5101 99.6066 25.7701 100.807 25.7701C101.447 25.7701 102.107 25.6901 102.787 25.5301C103.467 25.3701 104.117 25.1201 104.737 24.7801C105.357 24.4401 105.937 24.0101 106.477 23.4901C107.017 22.9501 107.467 22.3201 107.827 21.6001L109.147 22.2301C108.787 23.0301 108.297 23.7401 107.677 24.3601C107.057 24.9801 106.367 25.5001 105.607 25.9201C104.847 26.3401 104.037 26.6601 103.177 26.8801C102.337 27.0801 101.507 27.1801 100.687 27.1801C99.2266 27.1801 97.8866 26.8601 96.6666 26.2201C95.4666 25.5801 94.4266 24.7501 93.5466 23.7301C92.6666 22.6901 91.9766 21.5201 91.4766 20.2201C90.9966 18.9001 90.7566 17.5601 90.7566 16.2001Z" fill="#35342E"/>
<path d="M127.614 7.08008H119.814V27.0001H118.284V7.08008H110.484V5.70008H127.614V7.08008Z" fill="#35342E"/>
<path d="M128.462 16.2001C128.462 14.9201 128.682 13.6501 129.122 12.3901C129.582 11.1101 130.242 9.97008 131.102 8.97008C131.962 7.97008 133.012 7.16008 134.252 6.54008C135.512 5.90008 136.942 5.58008 138.542 5.58008C140.442 5.58008 142.062 6.02008 143.402 6.90008C144.742 7.76008 145.742 8.87008 146.402 10.2301L145.142 10.9501C144.762 10.2101 144.312 9.59008 143.792 9.09008C143.292 8.59008 142.742 8.19008 142.142 7.89008C141.562 7.57008 140.952 7.34008 140.312 7.20008C139.672 7.06008 139.042 6.99008 138.422 6.99008C137.062 6.99008 135.862 7.27008 134.822 7.83008C133.782 8.37008 132.902 9.08008 132.182 9.96008C131.462 10.8401 130.912 11.8401 130.532 12.9601C130.172 14.0601 129.992 15.1701 129.992 16.2901C129.992 17.5501 130.212 18.7501 130.652 19.8901C131.092 21.0301 131.692 22.0401 132.452 22.9201C133.212 23.7801 134.112 24.4701 135.152 24.9901C136.192 25.5101 137.312 25.7701 138.512 25.7701C139.152 25.7701 139.812 25.6901 140.492 25.5301C141.172 25.3701 141.822 25.1201 142.442 24.7801C143.062 24.4401 143.642 24.0101 144.182 23.4901C144.722 22.9501 145.172 22.3201 145.532 21.6001L146.852 22.2301C146.492 23.0301 146.002 23.7401 145.382 24.3601C144.762 24.9801 144.072 25.5001 143.312 25.9201C142.552 26.3401 141.742 26.6601 140.882 26.8801C140.042 27.0801 139.212 27.1801 138.392 27.1801C136.932 27.1801 135.592 26.8601 134.372 26.2201C133.172 25.5801 132.132 24.7501 131.252 23.7301C130.372 22.6901 129.682 21.5201 129.182 20.2201C128.702 18.9001 128.462 17.5601 128.462 16.2001Z" fill="#35342E"/>
<path d="M167.145 5.70008V27.0001H165.615V16.8001H152.175V27.0001H150.645V5.70008H152.175V15.4201H165.615V5.70008H167.145Z" fill="#35342E"/>
<path d="M179.395 5.70008H180.715L189.715 27.0001H188.095L185.125 19.9801H174.955L171.985 27.0001H170.335L179.395 5.70008ZM184.705 18.7201L180.055 7.56008L175.315 18.7201H184.705Z" fill="#35342E"/>
<path d="M199.51 14.44C198.47 14.44 197.503 14.26 196.61 13.9C195.717 13.5267 194.943 13.02 194.29 12.38C193.637 11.7267 193.123 10.96 192.75 10.08C192.39 9.2 192.21 8.24 192.21 7.2C192.21 6.17333 192.39 5.22 192.75 4.34C193.123 3.46 193.637 2.7 194.29 2.06C194.943 1.42 195.717 0.92 196.61 0.559999C197.503 0.186666 198.47 0 199.51 0C200.563 0 201.537 0.186666 202.43 0.559999C203.323 0.92 204.097 1.42 204.75 2.06C205.403 2.7 205.91 3.46 206.27 4.34C206.643 5.22 206.83 6.17333 206.83 7.2C206.83 8.24 206.643 9.2 206.27 10.08C205.91 10.96 205.403 11.7267 204.75 12.38C204.097 13.02 203.323 13.5267 202.43 13.9C201.537 14.26 200.563 14.44 199.51 14.44ZM199.51 13.88C200.457 13.88 201.337 13.72 202.15 13.4C202.977 13.08 203.69 12.6267 204.29 12.04C204.89 11.4533 205.363 10.7533 205.71 9.94C206.057 9.11333 206.23 8.2 206.23 7.2C206.23 6.25333 206.063 5.38 205.73 4.58C205.397 3.76667 204.93 3.06667 204.33 2.48C203.73 1.88 203.017 1.41333 202.19 1.08C201.377 0.733333 200.483 0.559999 199.51 0.559999C198.55 0.559999 197.657 0.733333 196.83 1.08C196.017 1.41333 195.31 1.88 194.71 2.48C194.123 3.06667 193.663 3.76667 193.33 4.58C192.997 5.38 192.83 6.25333 192.83 7.2C192.83 8.16 192.997 9.04667 193.33 9.86C193.663 10.6733 194.123 11.38 194.71 11.98C195.31 12.5667 196.017 13.0333 196.83 13.38C197.657 13.7133 198.55 13.88 199.51 13.88ZM196.53 2.68H200.33C200.717 2.68 201.07 2.76667 201.39 2.94C201.71 3.1 201.983 3.31333 202.21 3.58C202.45 3.84667 202.637 4.15334 202.77 4.5C202.903 4.83333 202.97 5.17333 202.97 5.52C202.97 5.85333 202.917 6.17333 202.81 6.48C202.703 6.78667 202.557 7.06667 202.37 7.32C202.183 7.56 201.957 7.76667 201.69 7.94C201.423 8.1 201.13 8.2 200.81 8.24L203.07 11.8H202.17L199.97 8.34H197.33V11.8H196.53V2.68ZM200.35 7.62C200.95 7.62 201.403 7.41333 201.71 7C202.03 6.58667 202.19 6.09333 202.19 5.52C202.19 4.92 202.01 4.42667 201.65 4.04C201.29 3.64 200.83 3.44 200.27 3.44H197.33V7.62H200.35Z" fill="#35342E"/>
</svg>
