<svg width="309" height="84" viewBox="0 0 309 84" fill="none" xmlns="http://www.w3.org/2000/svg">
<path d="M0.759766 83.0001V40.4001H28.3598V42.3201H2.85977V60.3201H24.5198V62.1801H2.85977V83.0001H0.759766Z" fill="#35342E"/>
<path d="M36.6191 83.0001V40.4001H38.7191V83.0001H36.6191Z" fill="#35342E"/>
<path d="M52.3129 44.3601V83.0001H50.2129V40.4001H51.7729L83.0929 79.7001V40.4001H85.1929V83.0001H83.1529L52.3129 44.3601Z" fill="#35342E"/>
<path d="M124.876 81.0801V83.0001H96.7363V40.4001H124.336V42.3201H98.8363V60.2601H121.156V62.1801H98.8363V81.0801H124.876Z" fill="#35342E"/>
<path d="M133.65 83.0001V40.4001H135.75V81.0801H161.85V83.0001H133.65Z" fill="#35342E"/>
<path d="M168.455 83.0001V40.4001H170.555V83.0001H168.455Z" fill="#35342E"/>
<path d="M184.149 44.3601V83.0001H182.049V40.4001H183.609L214.929 79.7001V40.4001H217.029V83.0001H214.989L184.149 44.3601Z" fill="#35342E"/>
<path d="M256.712 81.0801V83.0001H228.572V40.4001H256.172V42.3201H230.672V60.2601H252.992V62.1801H230.672V81.0801H256.712Z" fill="#35342E"/>
<path d="M289.327 46.7001C287.767 44.9801 286.047 43.7801 284.167 43.1001C282.287 42.3801 280.087 42.0201 277.567 42.0201C273.047 42.0201 269.767 42.8801 267.727 44.6001C265.687 46.3201 264.667 48.6201 264.667 51.5001C264.667 52.9401 264.907 54.1601 265.387 55.1601C265.907 56.1201 266.687 56.9401 267.727 57.6201C268.767 58.3001 270.107 58.8801 271.747 59.3601C273.387 59.8001 275.347 60.2601 277.627 60.7401C279.947 61.2201 282.047 61.7401 283.927 62.3001C285.807 62.8601 287.407 63.5801 288.727 64.4601C290.047 65.3001 291.067 66.3601 291.787 67.6401C292.507 68.9201 292.867 70.5001 292.867 72.3801C292.867 74.1801 292.507 75.7601 291.787 77.1201C291.107 78.4801 290.107 79.6201 288.787 80.5401C287.467 81.4601 285.867 82.1601 283.987 82.6401C282.147 83.0801 280.087 83.3001 277.807 83.3001C274.407 83.3001 271.347 82.7801 268.627 81.7401C265.907 80.6601 263.387 79.0201 261.067 76.8201L262.327 75.3201C264.327 77.3601 266.607 78.9001 269.167 79.9401C271.727 80.9801 274.627 81.5001 277.867 81.5001C281.867 81.5001 285.007 80.7801 287.287 79.3401C289.607 77.8601 290.767 75.6201 290.767 72.6201C290.767 71.1001 290.487 69.8201 289.927 68.7801C289.367 67.7001 288.507 66.8001 287.347 66.0801C286.227 65.3201 284.787 64.6801 283.027 64.1601C281.307 63.6001 279.267 63.0801 276.907 62.6001C274.587 62.1201 272.527 61.6201 270.727 61.1001C268.967 60.5801 267.467 59.9201 266.227 59.1201C265.027 58.3201 264.107 57.3401 263.467 56.1801C262.867 55.0201 262.567 53.5601 262.567 51.8001C262.567 49.9201 262.927 48.2601 263.647 46.8201C264.367 45.3401 265.367 44.1201 266.647 43.1601C267.967 42.1601 269.547 41.4001 271.387 40.8801C273.227 40.3601 275.267 40.1001 277.507 40.1001C280.267 40.1001 282.687 40.5001 284.767 41.3001C286.847 42.1001 288.747 43.3801 290.467 45.1401L289.327 46.7001Z" fill="#35342E"/>
<path d="M101.84 27.0001V5.70008H110.6C111.5 5.70008 112.33 5.89008 113.09 6.27008C113.85 6.65008 114.5 7.16008 115.04 7.80008C115.6 8.42008 116.03 9.13008 116.33 9.93008C116.65 10.7101 116.81 11.5001 116.81 12.3001C116.81 13.1601 116.66 13.9901 116.36 14.7901C116.08 15.5901 115.67 16.3001 115.13 16.9201C114.61 17.5401 113.98 18.0401 113.24 18.4201C112.5 18.7801 111.68 18.9601 110.78 18.9601H103.37V27.0001H101.84ZM103.37 17.5501H110.72C111.42 17.5501 112.05 17.4101 112.61 17.1301C113.17 16.8301 113.64 16.4401 114.02 15.9601C114.42 15.4601 114.72 14.9001 114.92 14.2801C115.14 13.6401 115.25 12.9801 115.25 12.3001C115.25 11.6001 115.12 10.9401 114.86 10.3201C114.62 9.68008 114.28 9.12008 113.84 8.64008C113.42 8.16008 112.92 7.78008 112.34 7.50008C111.78 7.22008 111.18 7.08008 110.54 7.08008H103.37V17.5501Z" fill="#35342E"/>
<path d="M134.663 25.6201V27.0001H120.473V5.70008H134.393V7.08008H122.003V15.4501H132.833V16.7701H122.003V25.6201H134.663Z" fill="#35342E"/>
<path d="M138.842 27.0001V5.70008H147.692C148.592 5.70008 149.422 5.89008 150.182 6.27008C150.942 6.65008 151.592 7.16008 152.132 7.80008C152.692 8.42008 153.122 9.13008 153.422 9.93008C153.742 10.7101 153.902 11.5001 153.902 12.3001C153.902 13.0801 153.782 13.8401 153.542 14.5801C153.302 15.3001 152.962 15.9501 152.522 16.5301C152.082 17.1101 151.552 17.5901 150.932 17.9701C150.312 18.3501 149.632 18.6001 148.892 18.7201L154.202 27.0001H152.432L147.272 18.9601H140.372V27.0001H138.842ZM140.372 17.5501H147.842C148.522 17.5501 149.142 17.4001 149.702 17.1001C150.262 16.8001 150.742 16.4101 151.142 15.9301C151.542 15.4301 151.842 14.8701 152.042 14.2501C152.262 13.6101 152.372 12.9601 152.372 12.3001C152.372 11.6201 152.242 10.9701 151.982 10.3501C151.742 9.71008 151.402 9.15008 150.962 8.67008C150.542 8.19008 150.042 7.81008 149.462 7.53008C148.902 7.23008 148.292 7.08008 147.632 7.08008H140.372V17.5501Z" fill="#35342E"/>
<path d="M158.325 27.0001V5.70008H172.185V7.08008H159.855V15.5401H170.325V16.8601H159.855V27.0001H158.325Z" fill="#35342E"/>
<path d="M190.327 25.6201V27.0001H176.137V5.70008H190.057V7.08008H177.667V15.4501H188.497V16.7701H177.667V25.6201H190.327Z" fill="#35342E"/>
<path d="M192.597 16.2001C192.597 14.9201 192.817 13.6501 193.257 12.3901C193.717 11.1101 194.377 9.97008 195.237 8.97008C196.097 7.97008 197.147 7.16008 198.387 6.54008C199.647 5.90008 201.077 5.58008 202.677 5.58008C204.577 5.58008 206.197 6.02008 207.537 6.90008C208.877 7.76008 209.877 8.87008 210.537 10.2301L209.277 10.9501C208.897 10.2101 208.447 9.59008 207.927 9.09008C207.427 8.59008 206.877 8.19008 206.277 7.89008C205.697 7.57008 205.087 7.34008 204.447 7.20008C203.807 7.06008 203.177 6.99008 202.557 6.99008C201.197 6.99008 199.997 7.27008 198.957 7.83008C197.917 8.37008 197.037 9.08008 196.317 9.96008C195.597 10.8401 195.047 11.8401 194.667 12.9601C194.307 14.0601 194.127 15.1701 194.127 16.2901C194.127 17.5501 194.347 18.7501 194.787 19.8901C195.227 21.0301 195.827 22.0401 196.587 22.9201C197.347 23.7801 198.247 24.4701 199.287 24.9901C200.327 25.5101 201.447 25.7701 202.647 25.7701C203.287 25.7701 203.947 25.6901 204.627 25.5301C205.307 25.3701 205.957 25.1201 206.577 24.7801C207.197 24.4401 207.777 24.0101 208.317 23.4901C208.857 22.9501 209.307 22.3201 209.667 21.6001L210.987 22.2301C210.627 23.0301 210.137 23.7401 209.517 24.3601C208.897 24.9801 208.207 25.5001 207.447 25.9201C206.687 26.3401 205.877 26.6601 205.017 26.8801C204.177 27.0801 203.347 27.1801 202.527 27.1801C201.067 27.1801 199.727 26.8601 198.507 26.2201C197.307 25.5801 196.267 24.7501 195.387 23.7301C194.507 22.6901 193.817 21.5201 193.317 20.2201C192.837 18.9001 192.597 17.5601 192.597 16.2001Z" fill="#35342E"/>
<path d="M229.455 7.08008H221.655V27.0001H220.125V7.08008H212.325V5.70008H229.455V7.08008Z" fill="#35342E"/>
<path d="M230.302 16.2001C230.302 14.9201 230.522 13.6501 230.962 12.3901C231.422 11.1101 232.082 9.97008 232.942 8.97008C233.802 7.97008 234.852 7.16008 236.092 6.54008C237.352 5.90008 238.782 5.58008 240.382 5.58008C242.282 5.58008 243.902 6.02008 245.242 6.90008C246.582 7.76008 247.582 8.87008 248.242 10.2301L246.982 10.9501C246.602 10.2101 246.152 9.59008 245.632 9.09008C245.132 8.59008 244.582 8.19008 243.982 7.89008C243.402 7.57008 242.792 7.34008 242.152 7.20008C241.512 7.06008 240.882 6.99008 240.262 6.99008C238.902 6.99008 237.702 7.27008 236.662 7.83008C235.622 8.37008 234.742 9.08008 234.022 9.96008C233.302 10.8401 232.752 11.8401 232.372 12.9601C232.012 14.0601 231.832 15.1701 231.832 16.2901C231.832 17.5501 232.052 18.7501 232.492 19.8901C232.932 21.0301 233.532 22.0401 234.292 22.9201C235.052 23.7801 235.952 24.4701 236.992 24.9901C238.032 25.5101 239.152 25.7701 240.352 25.7701C240.992 25.7701 241.652 25.6901 242.332 25.5301C243.012 25.3701 243.662 25.1201 244.282 24.7801C244.902 24.4401 245.482 24.0101 246.022 23.4901C246.562 22.9501 247.012 22.3201 247.372 21.6001L248.692 22.2301C248.332 23.0301 247.842 23.7401 247.222 24.3601C246.602 24.9801 245.912 25.5001 245.152 25.9201C244.392 26.3401 243.582 26.6601 242.722 26.8801C241.882 27.0801 241.052 27.1801 240.232 27.1801C238.772 27.1801 237.432 26.8601 236.212 26.2201C235.012 25.5801 233.972 24.7501 233.092 23.7301C232.212 22.6901 231.522 21.5201 231.022 20.2201C230.542 18.9001 230.302 17.5601 230.302 16.2001Z" fill="#35342E"/>
<path d="M268.985 5.70008V27.0001H267.455V16.8001H254.015V27.0001H252.485V5.70008H254.015V15.4201H267.455V5.70008H268.985Z" fill="#35342E"/>
<path d="M281.235 5.70008H282.555L291.555 27.0001H289.935L286.965 19.9801H276.795L273.825 27.0001H272.175L281.235 5.70008ZM286.545 18.7201L281.895 7.56008L277.155 18.7201H286.545Z" fill="#35342E"/>
<path d="M301.3 14.44C300.26 14.44 299.293 14.26 298.4 13.9C297.506 13.5267 296.733 13.02 296.08 12.38C295.426 11.7267 294.913 10.96 294.54 10.08C294.18 9.2 294 8.24 294 7.2C294 6.17333 294.18 5.22 294.54 4.34C294.913 3.46 295.426 2.7 296.08 2.06C296.733 1.42 297.506 0.92 298.4 0.559999C299.293 0.186666 300.26 0 301.3 0C302.353 0 303.326 0.186666 304.22 0.559999C305.113 0.92 305.886 1.42 306.54 2.06C307.193 2.7 307.7 3.46 308.06 4.34C308.433 5.22 308.62 6.17333 308.62 7.2C308.62 8.24 308.433 9.2 308.06 10.08C307.7 10.96 307.193 11.7267 306.54 12.38C305.886 13.02 305.113 13.5267 304.22 13.9C303.326 14.26 302.353 14.44 301.3 14.44ZM301.3 13.88C302.246 13.88 303.126 13.72 303.94 13.4C304.766 13.08 305.48 12.6267 306.08 12.04C306.68 11.4533 307.153 10.7533 307.5 9.94C307.846 9.11333 308.02 8.2 308.02 7.2C308.02 6.25333 307.853 5.38 307.52 4.58C307.186 3.76667 306.72 3.06667 306.12 2.48C305.52 1.88 304.806 1.41333 303.98 1.08C303.166 0.733333 302.273 0.559999 301.3 0.559999C300.34 0.559999 299.446 0.733333 298.62 1.08C297.806 1.41333 297.1 1.88 296.5 2.48C295.913 3.06667 295.453 3.76667 295.12 4.58C294.786 5.38 294.62 6.25333 294.62 7.2C294.62 8.16 294.786 9.04667 295.12 9.86C295.453 10.6733 295.913 11.38 296.5 11.98C297.1 12.5667 297.806 13.0333 298.62 13.38C299.446 13.7133 300.34 13.88 301.3 13.88ZM298.32 2.68H302.12C302.506 2.68 302.86 2.76667 303.18 2.94C303.5 3.1 303.773 3.31333 304 3.58C304.24 3.84667 304.426 4.15334 304.56 4.5C304.693 4.83333 304.76 5.17333 304.76 5.52C304.76 5.85333 304.706 6.17333 304.6 6.48C304.493 6.78667 304.346 7.06667 304.16 7.32C303.973 7.56 303.746 7.76667 303.48 7.94C303.213 8.1 302.92 8.2 302.6 8.24L304.86 11.8H303.96L301.76 8.34H299.12V11.8H298.32V2.68ZM302.14 7.62C302.74 7.62 303.193 7.41333 303.5 7C303.82 6.58667 303.98 6.09333 303.98 5.52C303.98 4.92 303.8 4.42667 303.44 4.04C303.08 3.64 302.62 3.44 302.06 3.44H299.12V7.62H302.14Z" fill="#35342E"/>
</svg>
