<svg width="265" height="85" viewBox="0 0 265 85" fill="none" xmlns="http://www.w3.org/2000/svg">
<path d="M28.26 47.7C26.7 45.98 24.98 44.78 23.1 44.1C21.22 43.38 19.02 43.02 16.5 43.02C11.98 43.02 8.7 43.88 6.66 45.6C4.62 47.32 3.6 49.62 3.6 52.5C3.6 53.94 3.84 55.16 4.32 56.16C4.84 57.12 5.62 57.94 6.66 58.62C7.7 59.3 9.04 59.88 10.68 60.36C12.32 60.8 14.28 61.26 16.56 61.74C18.88 62.22 20.98 62.74 22.86 63.3C24.74 63.86 26.34 64.58 27.66 65.46C28.98 66.3 30 67.36 30.72 68.64C31.44 69.92 31.8 71.5 31.8 73.38C31.8 75.18 31.44 76.76 30.72 78.12C30.04 79.48 29.04 80.62 27.72 81.54C26.4 82.46 24.8 83.16 22.92 83.64C21.08 84.08 19.02 84.3 16.74 84.3C13.34 84.3 10.28 83.78 7.56 82.74C4.84 81.66 2.32 80.02 0 77.82L1.26 76.32C3.26 78.36 5.54 79.9 8.1 80.94C10.66 81.98 13.56 82.5 16.8 82.5C20.8 82.5 23.94 81.78 26.22 80.34C28.54 78.86 29.7 76.62 29.7 73.62C29.7 72.1 29.42 70.82 28.86 69.78C28.3 68.7 27.44 67.8 26.28 67.08C25.16 66.32 23.72 65.68 21.96 65.16C20.24 64.6 18.2 64.08 15.84 63.6C13.52 63.12 11.46 62.62 9.66 62.1C7.9 61.58 6.4 60.92 5.16 60.12C3.96 59.32 3.04 58.34 2.4 57.18C1.8 56.02 1.5 54.56 1.5 52.8C1.5 50.92 1.86 49.26 2.58 47.82C3.3 46.34 4.3 45.12 5.58 44.16C6.9 43.16 8.48 42.4 10.32 41.88C12.16 41.36 14.2 41.1 16.44 41.1C19.2 41.1 21.62 41.5 23.7 42.3C25.78 43.1 27.68 44.38 29.4 46.14L28.26 47.7Z" fill="#35342E"/>
<path d="M56.6123 82.32C59.6523 82.32 62.1723 81.76 64.1723 80.64C66.2123 79.48 67.8123 77.98 68.9723 76.14C70.1323 74.3 70.9523 72.22 71.4323 69.9C71.9123 67.54 72.1523 65.16 72.1523 62.76V41.4H74.1923V62.76C74.1923 65.6 73.8923 68.32 73.2923 70.92C72.6923 73.52 71.6923 75.82 70.2923 77.82C68.9323 79.78 67.1323 81.36 64.8923 82.56C62.6923 83.72 59.9523 84.3 56.6723 84.3C53.3123 84.3 50.4923 83.68 48.2123 82.44C45.9723 81.2 44.1723 79.58 42.8123 77.58C41.4523 75.54 40.4723 73.24 39.8723 70.68C39.3123 68.08 39.0323 65.44 39.0323 62.76V41.4H41.1323V62.76C41.1323 65.24 41.3723 67.66 41.8523 70.02C42.3323 72.34 43.1723 74.42 44.3723 76.26C45.5723 78.06 47.1523 79.52 49.1123 80.64C51.1123 81.76 53.6123 82.32 56.6123 82.32Z" fill="#35342E"/>
<path d="M115.884 72.96C115.884 74.48 115.584 75.92 114.984 77.28C114.424 78.6 113.644 79.76 112.644 80.76C111.644 81.76 110.464 82.56 109.104 83.16C107.784 83.72 106.384 84 104.904 84H85.0439V41.4H104.364C105.844 41.4 107.184 41.72 108.384 42.36C109.584 43 110.604 43.84 111.444 44.88C112.284 45.88 112.924 47.04 113.364 48.36C113.844 49.64 114.084 50.94 114.084 52.26C114.084 54.42 113.544 56.4 112.464 58.2C111.384 60 109.884 61.32 107.964 62.16C109.164 62.52 110.244 63.06 111.204 63.78C112.204 64.46 113.044 65.28 113.724 66.24C114.444 67.2 114.984 68.26 115.344 69.42C115.704 70.54 115.884 71.72 115.884 72.96ZM113.844 72.78C113.844 71.58 113.624 70.42 113.184 69.3C112.744 68.14 112.144 67.14 111.384 66.3C110.624 65.42 109.724 64.72 108.684 64.2C107.644 63.68 106.524 63.42 105.324 63.42H87.1439V82.08H104.904C106.144 82.08 107.304 81.82 108.384 81.3C109.464 80.78 110.404 80.08 111.204 79.2C112.044 78.32 112.684 77.32 113.124 76.2C113.604 75.08 113.844 73.94 113.844 72.78ZM87.1439 43.32V61.56H103.644C104.884 61.56 106.004 61.3 107.004 60.78C108.044 60.26 108.924 59.58 109.644 58.74C110.404 57.86 110.984 56.88 111.384 55.8C111.824 54.72 112.044 53.6 112.044 52.44C112.044 51.24 111.844 50.1 111.444 49.02C111.044 47.9 110.484 46.92 109.764 46.08C109.084 45.24 108.244 44.58 107.244 44.1C106.284 43.58 105.204 43.32 104.004 43.32H87.1439Z" fill="#35342E"/>
<path d="M149.256 47.7C147.696 45.98 145.976 44.78 144.096 44.1C142.216 43.38 140.016 43.02 137.496 43.02C132.976 43.02 129.696 43.88 127.656 45.6C125.616 47.32 124.596 49.62 124.596 52.5C124.596 53.94 124.836 55.16 125.316 56.16C125.836 57.12 126.616 57.94 127.656 58.62C128.696 59.3 130.036 59.88 131.676 60.36C133.316 60.8 135.276 61.26 137.556 61.74C139.876 62.22 141.976 62.74 143.856 63.3C145.736 63.86 147.336 64.58 148.656 65.46C149.976 66.3 150.996 67.36 151.716 68.64C152.436 69.92 152.796 71.5 152.796 73.38C152.796 75.18 152.436 76.76 151.716 78.12C151.036 79.48 150.036 80.62 148.716 81.54C147.396 82.46 145.796 83.16 143.916 83.64C142.076 84.08 140.016 84.3 137.736 84.3C134.336 84.3 131.276 83.78 128.556 82.74C125.836 81.66 123.316 80.02 120.996 77.82L122.256 76.32C124.256 78.36 126.536 79.9 129.096 80.94C131.656 81.98 134.556 82.5 137.796 82.5C141.796 82.5 144.936 81.78 147.216 80.34C149.536 78.86 150.696 76.62 150.696 73.62C150.696 72.1 150.416 70.82 149.856 69.78C149.296 68.7 148.436 67.8 147.276 67.08C146.156 66.32 144.716 65.68 142.956 65.16C141.236 64.6 139.196 64.08 136.836 63.6C134.516 63.12 132.456 62.62 130.656 62.1C128.896 61.58 127.396 60.92 126.156 60.12C124.956 59.32 124.036 58.34 123.396 57.18C122.796 56.02 122.496 54.56 122.496 52.8C122.496 50.92 122.856 49.26 123.576 47.82C124.296 46.34 125.296 45.12 126.576 44.16C127.896 43.16 129.476 42.4 131.316 41.88C133.156 41.36 135.196 41.1 137.436 41.1C140.196 41.1 142.616 41.5 144.696 42.3C146.776 43.1 148.676 44.38 150.396 46.14L149.256 47.7Z" fill="#35342E"/>
<path d="M160.688 84V41.4H162.788V68.22L188.828 41.4H191.408L173.468 60.06L192.248 84H189.788L172.028 61.32L162.788 70.8V84H160.688Z" fill="#35342E"/>
<path d="M198.306 84V41.4H200.406V84H198.306Z" fill="#35342E"/>
<path d="M213.999 45.36V84H211.899V41.4H213.459L244.779 80.7V41.4H246.879V84H244.839L213.999 45.36Z" fill="#35342E"/>
<path d="M57.6206 27V5.69996H66.3806C67.2806 5.69996 68.1106 5.88996 68.8706 6.26996C69.6306 6.64996 70.2806 7.15996 70.8206 7.79996C71.3806 8.41996 71.8106 9.12996 72.1106 9.92996C72.4306 10.71 72.5906 11.5 72.5906 12.3C72.5906 13.16 72.4406 13.99 72.1406 14.79C71.8606 15.59 71.4506 16.3 70.9106 16.92C70.3906 17.54 69.7606 18.04 69.0206 18.42C68.2806 18.78 67.4606 18.96 66.5606 18.96H59.1506V27H57.6206ZM59.1506 17.55H66.5006C67.2006 17.55 67.8306 17.41 68.3906 17.13C68.9506 16.83 69.4206 16.44 69.8006 15.96C70.2006 15.46 70.5006 14.9 70.7006 14.28C70.9206 13.64 71.0306 12.98 71.0306 12.3C71.0306 11.6 70.9006 10.94 70.6406 10.32C70.4006 9.67996 70.0606 9.11996 69.6206 8.63996C69.2006 8.15996 68.7006 7.77996 68.1206 7.49996C67.5606 7.21996 66.9606 7.07996 66.3206 7.07996H59.1506V17.55Z" fill="#35342E"/>
<path d="M90.4434 25.62V27H76.2534V5.69996H90.1734V7.07996H77.7834V15.45H88.6134V16.77H77.7834V25.62H90.4434Z" fill="#35342E"/>
<path d="M94.6226 27V5.69996H103.473C104.373 5.69996 105.203 5.88996 105.963 6.26996C106.723 6.64996 107.373 7.15996 107.913 7.79996C108.473 8.41996 108.903 9.12996 109.203 9.92996C109.523 10.71 109.683 11.5 109.683 12.3C109.683 13.08 109.563 13.84 109.323 14.58C109.083 15.3 108.743 15.95 108.303 16.53C107.863 17.11 107.333 17.59 106.713 17.97C106.093 18.35 105.413 18.6 104.673 18.72L109.983 27H108.213L103.053 18.96H96.1526V27H94.6226ZM96.1526 17.55H103.623C104.303 17.55 104.923 17.4 105.483 17.1C106.043 16.8 106.523 16.41 106.923 15.93C107.323 15.43 107.623 14.87 107.823 14.25C108.043 13.61 108.153 12.96 108.153 12.3C108.153 11.62 108.023 10.97 107.763 10.35C107.523 9.70996 107.183 9.14996 106.743 8.66996C106.323 8.18996 105.823 7.80996 105.243 7.52996C104.683 7.22996 104.073 7.07996 103.413 7.07996H96.1526V17.55Z" fill="#35342E"/>
<path d="M114.105 27V5.69996H127.965V7.07996H115.635V15.54H126.105V16.86H115.635V27H114.105Z" fill="#35342E"/>
<path d="M146.107 25.62V27H131.917V5.69996H145.837V7.07996H133.447V15.45H144.277V16.77H133.447V25.62H146.107Z" fill="#35342E"/>
<path d="M148.377 16.2C148.377 14.92 148.597 13.65 149.037 12.39C149.497 11.11 150.157 9.96996 151.017 8.96996C151.877 7.96996 152.927 7.15996 154.167 6.53996C155.427 5.89996 156.857 5.57996 158.457 5.57996C160.357 5.57996 161.977 6.01996 163.317 6.89996C164.657 7.75996 165.657 8.86996 166.317 10.23L165.057 10.95C164.677 10.21 164.227 9.58996 163.707 9.08996C163.207 8.58996 162.657 8.18996 162.057 7.88996C161.477 7.56996 160.867 7.33996 160.227 7.19996C159.587 7.05996 158.957 6.98996 158.337 6.98996C156.977 6.98996 155.777 7.26996 154.737 7.82996C153.697 8.36996 152.817 9.07996 152.097 9.95996C151.377 10.84 150.827 11.84 150.447 12.96C150.087 14.06 149.907 15.17 149.907 16.29C149.907 17.55 150.127 18.75 150.567 19.89C151.007 21.03 151.607 22.04 152.367 22.92C153.127 23.78 154.027 24.47 155.067 24.99C156.107 25.51 157.227 25.77 158.427 25.77C159.067 25.77 159.727 25.69 160.407 25.53C161.087 25.37 161.737 25.12 162.357 24.78C162.977 24.44 163.557 24.01 164.097 23.49C164.637 22.95 165.087 22.32 165.447 21.6L166.767 22.23C166.407 23.03 165.917 23.74 165.297 24.36C164.677 24.98 163.987 25.5 163.227 25.92C162.467 26.34 161.657 26.66 160.797 26.88C159.957 27.08 159.127 27.18 158.307 27.18C156.847 27.18 155.507 26.86 154.287 26.22C153.087 25.58 152.047 24.75 151.167 23.73C150.287 22.69 149.597 21.52 149.097 20.22C148.617 18.9 148.377 17.56 148.377 16.2Z" fill="#35342E"/>
<path d="M185.235 7.07996H177.435V27H175.905V7.07996H168.105V5.69996H185.235V7.07996Z" fill="#35342E"/>
<path d="M186.082 16.2C186.082 14.92 186.302 13.65 186.742 12.39C187.202 11.11 187.862 9.96996 188.722 8.96996C189.582 7.96996 190.632 7.15996 191.872 6.53996C193.132 5.89996 194.562 5.57996 196.162 5.57996C198.062 5.57996 199.682 6.01996 201.022 6.89996C202.362 7.75996 203.362 8.86996 204.022 10.23L202.762 10.95C202.382 10.21 201.932 9.58996 201.412 9.08996C200.912 8.58996 200.362 8.18996 199.762 7.88996C199.182 7.56996 198.572 7.33996 197.932 7.19996C197.292 7.05996 196.662 6.98996 196.042 6.98996C194.682 6.98996 193.482 7.26996 192.442 7.82996C191.402 8.36996 190.522 9.07996 189.802 9.95996C189.082 10.84 188.532 11.84 188.152 12.96C187.792 14.06 187.612 15.17 187.612 16.29C187.612 17.55 187.832 18.75 188.272 19.89C188.712 21.03 189.312 22.04 190.072 22.92C190.832 23.78 191.732 24.47 192.772 24.99C193.812 25.51 194.932 25.77 196.132 25.77C196.772 25.77 197.432 25.69 198.112 25.53C198.792 25.37 199.442 25.12 200.062 24.78C200.682 24.44 201.262 24.01 201.802 23.49C202.342 22.95 202.792 22.32 203.152 21.6L204.472 22.23C204.112 23.03 203.622 23.74 203.002 24.36C202.382 24.98 201.692 25.5 200.932 25.92C200.172 26.34 199.362 26.66 198.502 26.88C197.662 27.08 196.832 27.18 196.012 27.18C194.552 27.18 193.212 26.86 191.992 26.22C190.792 25.58 189.752 24.75 188.872 23.73C187.992 22.69 187.302 21.52 186.802 20.22C186.322 18.9 186.082 17.56 186.082 16.2Z" fill="#35342E"/>
<path d="M224.765 5.69996V27H223.235V16.8H209.795V27H208.265V5.69996H209.795V15.42H223.235V5.69996H224.765Z" fill="#35342E"/>
<path d="M237.016 5.69996H238.336L247.336 27H245.716L242.746 19.98H232.576L229.606 27H227.956L237.016 5.69996ZM242.326 18.72L237.676 7.55996L232.936 18.72H242.326Z" fill="#35342E"/>
<path d="M257.08 14.44C256.04 14.44 255.073 14.26 254.18 13.9C253.286 13.5267 252.513 13.02 251.86 12.38C251.206 11.7267 250.693 10.96 250.32 10.08C249.96 9.2 249.78 8.24 249.78 7.2C249.78 6.17333 249.96 5.22 250.32 4.34C250.693 3.46 251.206 2.7 251.86 2.06C252.513 1.42 253.286 0.92 254.18 0.559999C255.073 0.186666 256.04 0 257.08 0C258.133 0 259.106 0.186666 260 0.559999C260.893 0.92 261.666 1.42 262.32 2.06C262.973 2.7 263.48 3.46 263.84 4.34C264.213 5.22 264.4 6.17333 264.4 7.2C264.4 8.24 264.213 9.2 263.84 10.08C263.48 10.96 262.973 11.7267 262.32 12.38C261.666 13.02 260.893 13.5267 260 13.9C259.106 14.26 258.133 14.44 257.08 14.44ZM257.08 13.88C258.026 13.88 258.906 13.72 259.72 13.4C260.546 13.08 261.26 12.6267 261.86 12.04C262.46 11.4533 262.933 10.7533 263.28 9.94C263.626 9.11333 263.8 8.2 263.8 7.2C263.8 6.25333 263.633 5.38 263.3 4.58C262.966 3.76667 262.5 3.06667 261.9 2.48C261.3 1.88 260.586 1.41333 259.76 1.08C258.946 0.733333 258.053 0.559999 257.08 0.559999C256.12 0.559999 255.226 0.733333 254.4 1.08C253.586 1.41333 252.88 1.88 252.28 2.48C251.693 3.06667 251.233 3.76667 250.9 4.58C250.566 5.38 250.4 6.25333 250.4 7.2C250.4 8.16 250.566 9.04667 250.9 9.86C251.233 10.6733 251.693 11.38 252.28 11.98C252.88 12.5667 253.586 13.0333 254.4 13.38C255.226 13.7133 256.12 13.88 257.08 13.88ZM254.1 2.68H257.9C258.286 2.68 258.64 2.76667 258.96 2.94C259.28 3.1 259.553 3.31333 259.78 3.58C260.02 3.84667 260.206 4.15334 260.34 4.5C260.473 4.83333 260.54 5.17333 260.54 5.52C260.54 5.85333 260.486 6.17333 260.38 6.48C260.273 6.78667 260.126 7.06667 259.94 7.32C259.753 7.56 259.526 7.76667 259.26 7.94C258.993 8.1 258.7 8.2 258.38 8.24L260.64 11.8H259.74L257.54 8.34H254.9V11.8H254.1V2.68ZM257.92 7.62C258.52 7.62 258.973 7.41333 259.28 7C259.6 6.58667 259.76 6.09333 259.76 5.52C259.76 4.92 259.58 4.42667 259.22 4.04C258.86 3.64 258.4 3.44 257.84 3.44H254.9V7.62H257.92Z" fill="#35342E"/>
</svg>
