<svg width="33" height="12" viewBox="0 0 33 12" fill="none" xmlns="http://www.w3.org/2000/svg">
<path d="M4.1479 9.19383V9.99983H-0.155102V9.19383H1.5999V1.64083C1.53057 1.74483 1.41357 1.86183 1.2489 1.99183C1.0929 2.11317 0.915232 2.2345 0.715898 2.35583C0.525232 2.4685 0.325898 2.56383 0.117898 2.64183C-0.0901016 2.71983 -0.280768 2.75883 -0.454102 2.75883V1.92683C-0.306768 1.92683 -0.155102 1.8965 0.000898421 1.83583C0.165565 1.77517 0.321565 1.7015 0.468898 1.61483C0.624899 1.5195 0.767898 1.41983 0.897898 1.31583C1.03656 1.20316 1.15357 1.09917 1.2489 1.00383C1.3529 0.908499 1.43523 0.830499 1.4959 0.769832C1.55657 0.700499 1.59123 0.661499 1.5999 0.652832H2.4969V9.19383H4.1479Z" fill="#35342E"/>
<path d="M14.2216 1.57583H9.80158V9.99983H8.90458V0.769832H14.2216V1.57583Z" fill="#35342E"/>
<path d="M18.7287 10.0648C18.0874 10.0648 17.4981 9.93483 16.9607 9.67483C16.4321 9.40617 15.9771 9.05517 15.5957 8.62183C15.2144 8.17983 14.9197 7.67717 14.7117 7.11383C14.5037 6.5505 14.3997 5.97417 14.3997 5.38483C14.3997 4.7695 14.5081 4.18017 14.7247 3.61683C14.9501 3.0535 15.2577 2.55517 15.6477 2.12183C16.0377 1.6885 16.4971 1.34617 17.0257 1.09483C17.5544 0.834832 18.1264 0.704832 18.7417 0.704832C19.3831 0.704832 19.9681 0.843499 20.4967 1.12083C21.0341 1.3895 21.4891 1.74483 21.8617 2.18683C22.2431 2.62883 22.5377 3.1315 22.7457 3.69483C22.9537 4.2495 23.0577 4.81717 23.0577 5.39783C23.0577 6.01317 22.9451 6.6025 22.7197 7.16583C22.5031 7.72917 22.1997 8.2275 21.8097 8.66083C21.4284 9.0855 20.9734 9.42783 20.4447 9.68783C19.9161 9.93917 19.3441 10.0648 18.7287 10.0648ZM15.3097 5.38483C15.3097 5.8875 15.3921 6.37283 15.5567 6.84083C15.7214 7.30017 15.9554 7.71183 16.2587 8.07583C16.5621 8.43117 16.9217 8.71716 17.3377 8.93383C17.7537 9.14183 18.2174 9.24583 18.7287 9.24583C19.2487 9.24583 19.7211 9.13317 20.1457 8.90783C20.5704 8.6825 20.9301 8.38783 21.2247 8.02383C21.5194 7.65983 21.7447 7.24817 21.9007 6.78883C22.0654 6.3295 22.1477 5.8615 22.1477 5.38483C22.1477 4.88217 22.0611 4.40117 21.8877 3.94183C21.7231 3.47383 21.4891 3.06217 21.1857 2.70683C20.8824 2.3515 20.5227 2.06983 20.1067 1.86183C19.6907 1.64517 19.2314 1.53683 18.7287 1.53683C18.2087 1.53683 17.7364 1.6495 17.3117 1.87483C16.8871 2.0915 16.5274 2.38183 16.2327 2.74583C15.9381 3.10983 15.7084 3.5215 15.5437 3.98083C15.3877 4.44017 15.3097 4.90817 15.3097 5.38483Z" fill="#35342E"/>
<path d="M23.4182 9.19383H23.6262C23.7995 9.1765 23.9598 9.1375 24.1072 9.07683C24.2632 9.0075 24.4062 8.89483 24.5362 8.73883C24.6748 8.57417 24.8005 8.3575 24.9132 8.08883C25.0345 7.8115 25.1428 7.45183 25.2382 7.00983C25.3422 6.55917 25.4375 6.02183 25.5242 5.39783C25.6108 4.76517 25.6888 4.01117 25.7582 3.13583L25.9532 0.769832H30.7892V9.19383H32.1022V12.4178H31.2962V9.99983H24.2372V12.4178H23.4182V9.19383ZM29.8922 9.19383V1.57583H26.7852L26.6552 3.21383C26.5858 4.08917 26.5035 4.8605 26.4082 5.52783C26.3215 6.1865 26.2132 6.76283 26.0832 7.25683C25.9618 7.74217 25.8188 8.14517 25.6542 8.46583C25.4895 8.77783 25.3032 9.0205 25.0952 9.19383H29.8922Z" fill="#35342E"/>
</svg>
