<svg width="45" height="12" viewBox="0 0 45 12" fill="none" xmlns="http://www.w3.org/2000/svg">
<path d="M0.624023 9.99983V9.81783C0.624023 9.24583 0.680357 8.75183 0.793023 8.33583C0.90569 7.91117 1.06602 7.54283 1.27402 7.23083C1.49069 6.91017 1.75502 6.63717 2.06702 6.41183C2.37902 6.17783 2.73436 5.9655 3.13302 5.77483C3.42769 5.63617 3.73536 5.50183 4.05602 5.37183C4.37669 5.24183 4.67136 5.09017 4.94002 4.91683C5.20869 4.73483 5.42969 4.51817 5.60302 4.26683C5.77636 4.0155 5.86302 3.69917 5.86302 3.31783C5.86302 3.07517 5.81969 2.8455 5.73302 2.62883C5.65502 2.4035 5.53369 2.2085 5.36902 2.04383C5.21302 1.8705 5.00936 1.73617 4.75802 1.64083C4.50669 1.53683 4.21202 1.48483 3.87402 1.48483C3.53602 1.48483 3.22836 1.5325 2.95102 1.62783C2.68236 1.7145 2.43969 1.82283 2.22302 1.95283C2.01502 2.08283 1.83302 2.22583 1.67702 2.38183C1.52102 2.53783 1.39102 2.68083 1.28702 2.81083L0.702023 2.23883C0.754023 2.17817 0.858023 2.06117 1.01402 1.88783C1.17869 1.7145 1.39536 1.53683 1.66402 1.35483C1.94136 1.17283 2.27069 1.0125 2.65202 0.873832C3.03336 0.726499 3.47102 0.652832 3.96502 0.652832C4.44169 0.652832 4.85769 0.726499 5.21302 0.873832C5.57702 1.0125 5.87602 1.20317 6.11002 1.44583C6.35269 1.6885 6.53469 1.97017 6.65602 2.29083C6.77736 2.6115 6.83802 2.9495 6.83802 3.30483C6.83802 3.74683 6.75136 4.12817 6.57802 4.44883C6.41336 4.76083 6.19669 5.0295 5.92802 5.25483C5.65936 5.48017 5.36036 5.67083 5.03102 5.82683C4.70169 5.98283 4.37669 6.13017 4.05602 6.26883C3.57069 6.47683 3.16769 6.6935 2.84702 6.91883C2.53502 7.1355 2.28369 7.36517 2.09302 7.60783C1.90236 7.8505 1.76802 8.10617 1.69002 8.37483C1.62069 8.63483 1.58602 8.90783 1.58602 9.19383H6.85102V9.99983H0.624023Z" fill="#35342E"/>
<path d="M17.3672 1.57583H12.9472V9.99983H12.0502V0.769832H17.3672V1.57583Z" fill="#35342E"/>
<path d="M21.8744 10.0648C21.233 10.0648 20.6437 9.93483 20.1064 9.67483C19.5777 9.40617 19.1227 9.05517 18.7414 8.62183C18.36 8.17983 18.0654 7.67717 17.8574 7.11383C17.6494 6.5505 17.5454 5.97417 17.5454 5.38483C17.5454 4.7695 17.6537 4.18017 17.8704 3.61683C18.0957 3.0535 18.4034 2.55517 18.7934 2.12183C19.1834 1.6885 19.6427 1.34617 20.1714 1.09483C20.7 0.834832 21.272 0.704832 21.8874 0.704832C22.5287 0.704832 23.1137 0.843499 23.6424 1.12083C24.1797 1.3895 24.6347 1.74483 25.0074 2.18683C25.3887 2.62883 25.6834 3.1315 25.8914 3.69483C26.0994 4.2495 26.2034 4.81717 26.2034 5.39783C26.2034 6.01317 26.0907 6.6025 25.8654 7.16583C25.6487 7.72917 25.3454 8.2275 24.9554 8.66083C24.574 9.0855 24.119 9.42783 23.5904 9.68783C23.0617 9.93917 22.4897 10.0648 21.8744 10.0648ZM18.4554 5.38483C18.4554 5.8875 18.5377 6.37283 18.7024 6.84083C18.867 7.30017 19.101 7.71183 19.4044 8.07583C19.7077 8.43117 20.0674 8.71716 20.4834 8.93383C20.8994 9.14183 21.363 9.24583 21.8744 9.24583C22.3944 9.24583 22.8667 9.13317 23.2914 8.90783C23.716 8.6825 24.0757 8.38783 24.3704 8.02383C24.665 7.65983 24.8904 7.24817 25.0464 6.78883C25.211 6.3295 25.2934 5.8615 25.2934 5.38483C25.2934 4.88217 25.2067 4.40117 25.0334 3.94183C24.8687 3.47383 24.6347 3.06217 24.3314 2.70683C24.028 2.3515 23.6684 2.06983 23.2524 1.86183C22.8364 1.64517 22.377 1.53683 21.8744 1.53683C21.3544 1.53683 20.882 1.6495 20.4574 1.87483C20.0327 2.0915 19.673 2.38183 19.3784 2.74583C19.0837 3.10983 18.854 3.5215 18.6894 3.98083C18.5334 4.44017 18.4554 4.90817 18.4554 5.38483Z" fill="#35342E"/>
<path d="M26.5638 9.19383H26.7718C26.9451 9.1765 27.1055 9.1375 27.2528 9.07683C27.4088 9.0075 27.5518 8.89483 27.6818 8.73883C27.8205 8.57417 27.9461 8.3575 28.0588 8.08883C28.1801 7.8115 28.2885 7.45183 28.3838 7.00983C28.4878 6.55917 28.5831 6.02183 28.6698 5.39783C28.7565 4.76517 28.8345 4.01117 28.9038 3.13583L29.0988 0.769832H33.9348V9.19383H35.2478V12.4178H34.4418V9.99983H27.3828V12.4178H26.5638V9.19383ZM33.0378 9.19383V1.57583H29.9308L29.8008 3.21383C29.7315 4.08917 29.6491 4.8605 29.5538 5.52783C29.4671 6.1865 29.3588 6.76283 29.2288 7.25683C29.1075 7.74217 28.9645 8.14517 28.7998 8.46583C28.6351 8.77783 28.4488 9.0205 28.2408 9.19383H33.0378Z" fill="#35342E"/>
<path d="M39.5385 0.769832H40.3055L44.1405 9.99983H43.1785L41.9825 7.11383H37.8355L36.6525 9.99983H35.6775L39.5385 0.769832ZM41.7745 6.39883L39.9155 1.83583L38.0305 6.39883H41.7745Z" fill="#35342E"/>
</svg>
