<svg width="116" height="21" viewBox="0 0 116 21" fill="none" xmlns="http://www.w3.org/2000/svg">
<g clip-path="url(#clip0)">
<path d="M3.68007 3.47412H0.0673828V3.52193V10.4224V12.526V19.8568V19.8727V19.8887H4.01428H7.67471V18.7731H7.62696H6.08322H1.34058L1.30874 18.7572V12.0161H5.30338H6.97445H7.02219V11.4902V10.9483H6.97445H5.25564H1.30874V4.57374H5.22381H7.35641H7.40415V3.47412H3.68007Z" fill="#35342E"/>
<path d="M18.9428 19.8887V18.7731H18.8791H18.338H17.399H12.6723C12.6086 18.7731 12.5768 18.7572 12.5768 18.6456V12.526V10.4224V3.5538V3.47412H11.9402H11.3354V3.5538V10.4224V12.526V19.7931V19.8727V19.8887H15.3301H18.9428Z" fill="#35342E"/>
<path d="M30.0834 19.8887V18.7731H30.0197H29.4945H28.5556H23.8288C23.7652 18.7731 23.7333 18.7572 23.7333 18.6456V12.526V10.4224V3.5538V3.47412H23.0808H22.4761V3.5538V10.4224V12.526V19.7931V19.9046H26.4707H30.0834V19.8887Z" fill="#35342E"/>
<path d="M36.9265 13.2431C39.3138 7.60159 39.648 6.86851 39.9504 5.97607H39.9981C40.2846 6.85257 40.5711 7.56971 42.8787 13.2431L42.8946 13.3228H36.8947L36.9265 13.2431ZM46.9848 19.8886V19.8408C46.937 19.6814 46.5232 18.7093 43.9609 12.526L40.0936 3.20312H39.9663L35.9716 12.4781C33.282 18.7412 32.8046 19.7292 32.7568 19.8408V19.8886H33.4889H34.0619V19.8408C34.1096 19.7133 34.5234 18.7412 36.4332 14.3586H43.3402C45.1864 18.7412 45.6002 19.7133 45.632 19.8408V19.8886H46.2527H46.9848Z" fill="#35342E"/>
<path d="M62.9633 20.0959H63.0747V10.4225V3.52203V3.47422H62.5017H61.9129V3.52203V10.4225V17.0521H61.8651C61.0694 15.9843 60.4646 15.2672 59.6052 14.2313C58.0456 12.3827 55.3082 9.06792 50.3905 3.21924H50.3109H50.2632V12.5261V19.8569V19.9047H50.852H51.425V19.8569V12.5261V6.29497H51.4409C52.3958 7.60176 52.9846 8.25516 53.9236 9.37071C55.531 11.2671 58.2047 14.4863 62.9633 20.0959Z" fill="#35342E"/>
<path d="M67.0855 7.45815C67.0855 8.90837 67.5311 9.80081 68.9316 11.1235C69.6796 11.8247 70.3321 12.255 71.1438 12.9403C72.3533 13.9284 72.7671 14.7889 72.7671 15.9363C72.7671 17.8806 70.9528 19.028 69.1385 19.028C68.5178 19.028 67.8971 18.9483 67.4833 18.8527C67.1969 18.789 66.9422 18.7252 66.7672 18.6615H66.7194C66.7035 18.9483 66.7035 19.0758 66.6558 19.8248C67.2128 19.9683 68.1677 20.1117 68.9157 20.1117C72.5125 20.1117 74.0721 17.8009 74.0721 15.9204V15.8885C74.0721 14.0558 73.1968 13.004 71.8918 11.8566C71.0005 11.0757 70.2685 10.6136 69.5045 9.84862C68.7725 9.13148 68.3905 8.3984 68.3905 7.36253C68.3905 5.62546 69.9342 4.47803 71.9554 4.47803C72.1942 4.47803 72.5761 4.49397 72.8467 4.54178C73.0536 4.55772 73.356 4.62146 73.531 4.68521H73.5788C73.5947 4.27086 73.6265 3.90432 73.6424 3.56966C73.2605 3.4581 72.6875 3.37842 71.8759 3.37842C68.8998 3.39435 67.0855 5.32267 67.0855 7.45815Z" fill="#35342E"/>
<path d="M81.393 3.47415H77.7803V3.50602V10.4065V12.5101V19.825V19.8728H81.7272H85.3717V18.7572H85.3239H83.7961H79.0535L79.0376 18.7253V12.0161H83.0322H84.7033H84.751V11.4902V10.9483H84.7033H82.9844H79.0376V4.57376H82.9367H85.0693H85.117V3.47415H81.393ZM83.0004 0L80.3107 2.16736L80.6609 2.64545L83.621 0.956187L83.0004 0Z" fill="#35342E"/>
<path d="M89.4456 1.7688H89.6366C89.8594 1.7688 90.0504 1.70506 90.0504 1.52976C90.0504 1.38633 89.939 1.27477 89.6684 1.27477C89.557 1.27477 89.4933 1.29071 89.4456 1.29071V1.7688ZM89.4456 2.69312H89.0318V1.0676C89.191 1.03573 89.4138 1.01979 89.7002 1.01979C90.0345 1.01979 90.1777 1.0676 90.305 1.13135C90.4005 1.19509 90.4801 1.32258 90.4801 1.48195C90.4801 1.65725 90.3368 1.80068 90.114 1.86442V1.88036C90.2891 1.9441 90.3846 2.05566 90.4323 2.27877C90.4801 2.53375 90.5119 2.62937 90.5596 2.69312H90.114C90.0663 2.62937 90.0345 2.48594 89.9708 2.29471C89.939 2.11941 89.8276 2.03972 89.6047 2.03972H89.4138V2.69312H89.4456ZM88.3634 1.83255C88.3634 2.56563 88.9363 3.13934 89.7321 3.13934C90.496 3.13934 91.0689 2.56563 91.0689 1.84849C91.0689 1.11541 90.496 0.541697 89.7161 0.541697C88.9363 0.541697 88.3634 1.11541 88.3634 1.83255ZM91.5145 1.83255C91.5145 2.75686 90.7347 3.48994 89.7161 3.48994C88.7135 3.48994 87.9019 2.75686 87.9019 1.83255C87.9019 0.924172 88.6976 0.207031 89.7161 0.207031C90.7347 0.207031 91.5145 0.940108 91.5145 1.83255Z" fill="#35342E"/>
</g>
<path d="M107.69 17.1244C107.742 17.1588 107.802 17.1933 107.871 17.2277C107.94 17.2622 108.009 17.2966 108.078 17.3311C108.319 17.4689 108.577 17.5981 108.853 17.7187C109.129 17.8392 109.413 17.9426 109.706 18.0287C109.861 18.0632 110.016 18.0976 110.171 18.1321C110.343 18.1493 110.507 18.1579 110.662 18.1579C110.696 18.1579 110.73 18.1579 110.765 18.1579C110.817 18.1579 110.86 18.1579 110.894 18.1579C111.239 18.1234 111.566 18.0115 111.876 17.822C112.186 17.6153 112.418 17.3139 112.574 16.9177C112.625 16.8316 112.66 16.7454 112.677 16.6593C112.711 16.5732 112.737 16.4785 112.754 16.3751C112.754 16.289 112.754 16.2029 112.754 16.1167C112.772 16.0306 112.78 15.9445 112.78 15.8584C112.78 15.2555 112.574 14.7043 112.16 14.2047C111.764 13.688 111.316 13.2143 110.817 12.7837C110.644 12.6459 110.481 12.5167 110.326 12.3961C110.171 12.2583 110.016 12.1291 109.861 12.0086C109.292 11.5263 108.775 10.9923 108.31 10.4066C107.845 9.82098 107.535 9.14059 107.38 8.36546C107.38 8.29656 107.372 8.22766 107.354 8.15876C107.337 8.08986 107.328 8.02096 107.328 7.95206C107.311 7.95206 107.303 7.94345 107.303 7.92622C107.303 7.909 107.303 7.89177 107.303 7.87455C107.285 7.80565 107.268 7.72814 107.251 7.64201C107.251 7.55589 107.251 7.47837 107.251 7.40947C107.251 6.77215 107.38 6.16066 107.639 5.57501C107.914 4.97213 108.293 4.45538 108.775 4.02475C109.12 3.69748 109.499 3.45633 109.912 3.3013C110.326 3.14628 110.748 3.05154 111.178 3.01709C111.23 3.01709 111.282 3.01709 111.333 3.01709C111.385 3.01709 111.437 3.01709 111.488 3.01709C111.712 3.01709 111.936 3.03431 112.16 3.06876C112.384 3.08599 112.617 3.12044 112.858 3.17211C113.133 3.24101 113.4 3.31853 113.659 3.40465C113.934 3.49078 114.201 3.59413 114.46 3.7147V5.98841C114.425 5.97118 114.382 5.95396 114.33 5.93673C114.296 5.90228 114.262 5.87645 114.227 5.85922C114.003 5.73864 113.753 5.62668 113.478 5.52333C113.219 5.40276 112.952 5.30802 112.677 5.23912C112.522 5.20467 112.367 5.17883 112.212 5.16161C112.057 5.12716 111.902 5.10993 111.747 5.10993C111.729 5.10993 111.704 5.10993 111.669 5.10993C111.652 5.10993 111.626 5.10993 111.592 5.10993C111.247 5.12716 110.911 5.22189 110.584 5.39414C110.257 5.56639 109.998 5.85061 109.809 6.24678C109.757 6.35013 109.706 6.47071 109.654 6.60851C109.619 6.72908 109.594 6.85827 109.576 6.99607C109.576 7.06497 109.568 7.13387 109.551 7.20277C109.551 7.27167 109.551 7.34057 109.551 7.40947C109.551 7.47837 109.551 7.54727 109.551 7.61617C109.568 7.68507 109.576 7.74536 109.576 7.79704C109.594 7.93484 109.619 8.07264 109.654 8.21044C109.706 8.33101 109.757 8.45159 109.809 8.57216C110.084 9.10614 110.438 9.57121 110.868 9.96739C111.299 10.3463 111.747 10.7253 112.212 11.1042C112.729 11.5176 113.219 11.9483 113.685 12.3961C114.167 12.844 114.537 13.3866 114.796 14.0239C114.864 14.1789 114.916 14.3598 114.951 14.5665C114.985 14.7559 115.011 14.9454 115.028 15.1349C115.028 15.2383 115.028 15.3416 115.028 15.445C115.045 15.5311 115.054 15.6258 115.054 15.7292C115.054 15.8325 115.045 15.9445 115.028 16.0651C115.028 16.1684 115.019 16.2804 115.002 16.4009C114.968 16.6938 114.908 16.9866 114.821 17.2794C114.752 17.5722 114.658 17.8392 114.537 18.0804C114.158 18.8555 113.624 19.4067 112.935 19.734C112.246 20.044 111.523 20.1991 110.765 20.1991C110.61 20.1991 110.446 20.1904 110.274 20.1732C110.119 20.156 109.955 20.1388 109.783 20.1215C109.421 20.0871 109.06 20.0096 108.698 19.889C108.336 19.7684 108 19.6306 107.69 19.4756V17.1244Z" fill="#35342E"/>
<path d="M90.4053 10H103.324V13H90.4053V10Z" fill="#FCED00"/>
<defs>
<clipPath id="clip0">
<rect width="113.515" height="20.0959" fill="white" transform="translate(-22)"/>
</clipPath>
</defs>
</svg>
