<svg width="100%" height="100%" viewBox="0 0 375 3790" fill="none" xmlns="http://www.w3.org/2000/svg">
<path d="M-840.705 3199.84C-544.889 2706.32 -131.911 2953.86 155.223 2474.82C442.356 1995.79 34.5936 1739.55 323.446 1257.64C612.299 775.739 1033.99 1008.74 1322.84 526.84" stroke="#FCED00" stroke-width="2" stroke-miterlimit="10"/>
<path d="M-623.893 2950.88C-328.077 2457.36 84.9014 2704.9 372.035 2225.87C659.168 1746.83 251.406 1490.59 540.258 1008.69C829.111 526.785 1250.8 759.789 1539.65 277.886" stroke="#FCED00" stroke-width="2" stroke-miterlimit="10"/>
<path d="M-937.488 3541.72C-641.672 3048.2 -228.694 3295.74 58.4397 2816.71C345.573 2337.67 -62.1896 2081.43 226.663 1599.53C515.515 1117.62 937.205 1350.63 1226.06 868.726" stroke="#FCED00" stroke-width="2" stroke-miterlimit="10"/>
</svg>
