<svg width="138" height="21" viewBox="0 0 138 21" fill="none" xmlns="http://www.w3.org/2000/svg">
<g clip-path="url(#clip0)">
<path d="M25.6801 3.47412H22.0674V3.52193V10.4224V12.526V19.8568V19.8727V19.8887H26.0143H29.6747V18.7731H29.627H28.0832H23.3406L23.3087 18.7572V12.0161H27.3034H28.9745H29.0222V11.4902V10.9483H28.9745H27.2556H23.3087V4.57374H27.2238H29.3564H29.4042V3.47412H25.6801Z" fill="#35342E"/>
<path d="M40.9428 19.8887V18.7731H40.8791H40.338H39.399H34.6723C34.6086 18.7731 34.5768 18.7572 34.5768 18.6456V12.526V10.4224V3.5538V3.47412H33.9402H33.3354V3.5538V10.4224V12.526V19.7931V19.8727V19.8887H37.3301H40.9428Z" fill="#35342E"/>
<path d="M52.0834 19.8887V18.7731H52.0197H51.4945H50.5556H45.8288C45.7652 18.7731 45.7333 18.7572 45.7333 18.6456V12.526V10.4224V3.5538V3.47412H45.0808H44.4761V3.5538V10.4224V12.526V19.7931V19.9046H48.4707H52.0834V19.8887Z" fill="#35342E"/>
<path d="M58.9265 13.2431C61.3138 7.60159 61.648 6.86851 61.9504 5.97607H61.9981C62.2846 6.85257 62.5711 7.56971 64.8787 13.2431L64.8946 13.3228H58.8947L58.9265 13.2431ZM68.9848 19.8886V19.8408C68.937 19.6814 68.5232 18.7093 65.9609 12.526L62.0936 3.20312H61.9663L57.9716 12.4781C55.282 18.7412 54.8046 19.7292 54.7568 19.8408V19.8886H55.4889H56.0619V19.8408C56.1096 19.7133 56.5234 18.7412 58.4332 14.3586H65.3402C67.1864 18.7412 67.6002 19.7133 67.632 19.8408V19.8886H68.2527H68.9848Z" fill="#35342E"/>
<path d="M84.9633 20.0959H85.0747V10.4225V3.52203V3.47422H84.5017H83.9129V3.52203V10.4225V17.0521H83.8651C83.0694 15.9843 82.4646 15.2672 81.6052 14.2313C80.0456 12.3827 77.3082 9.06792 72.3905 3.21924H72.3109H72.2632V12.5261V19.8569V19.9047H72.852H73.425V19.8569V12.5261V6.29497H73.4409C74.3958 7.60176 74.9846 8.25516 75.9236 9.37071C77.531 11.2671 80.2047 14.4863 84.9633 20.0959Z" fill="#35342E"/>
<path d="M89.0855 7.45815C89.0855 8.90837 89.5311 9.80081 90.9316 11.1235C91.6796 11.8247 92.3321 12.255 93.1438 12.9403C94.3533 13.9284 94.7671 14.7889 94.7671 15.9363C94.7671 17.8806 92.9528 19.028 91.1385 19.028C90.5178 19.028 89.8971 18.9483 89.4833 18.8527C89.1969 18.789 88.9422 18.7252 88.7672 18.6615H88.7194C88.7035 18.9483 88.7035 19.0758 88.6558 19.8248C89.2128 19.9683 90.1677 20.1117 90.9157 20.1117C94.5125 20.1117 96.0721 17.8009 96.0721 15.9204V15.8885C96.0721 14.0558 95.1968 13.004 93.8918 11.8566C93.0005 11.0757 92.2685 10.6136 91.5045 9.84862C90.7725 9.13148 90.3905 8.3984 90.3905 7.36253C90.3905 5.62546 91.9342 4.47803 93.9554 4.47803C94.1942 4.47803 94.5761 4.49397 94.8467 4.54178C95.0536 4.55772 95.356 4.62146 95.531 4.68521H95.5788C95.5947 4.27086 95.6265 3.90432 95.6424 3.56966C95.2605 3.4581 94.6875 3.37842 93.8759 3.37842C90.8998 3.39435 89.0855 5.32267 89.0855 7.45815Z" fill="#35342E"/>
<path d="M103.393 3.47415H99.7803V3.50602V10.4065V12.5101V19.825V19.8728H103.727H107.372V18.7572H107.324H105.796H101.053L101.038 18.7253V12.0161H105.032H106.703H106.751V11.4902V10.9483H106.703H104.984H101.038V4.57376H104.937H107.069H107.117V3.47415H103.393ZM105 0L102.311 2.16736L102.661 2.64545L105.621 0.956187L105 0Z" fill="#35342E"/>
<path d="M111.446 1.7688H111.637C111.859 1.7688 112.05 1.70506 112.05 1.52976C112.05 1.38633 111.939 1.27477 111.668 1.27477C111.557 1.27477 111.493 1.29071 111.446 1.29071V1.7688ZM111.446 2.69312H111.032V1.0676C111.191 1.03573 111.414 1.01979 111.7 1.01979C112.034 1.01979 112.178 1.0676 112.305 1.13135C112.4 1.19509 112.48 1.32258 112.48 1.48195C112.48 1.65725 112.337 1.80068 112.114 1.86442V1.88036C112.289 1.9441 112.385 2.05566 112.432 2.27877C112.48 2.53375 112.512 2.62937 112.56 2.69312H112.114C112.066 2.62937 112.034 2.48594 111.971 2.29471C111.939 2.11941 111.828 2.03972 111.605 2.03972H111.414V2.69312H111.446ZM110.363 1.83255C110.363 2.56563 110.936 3.13934 111.732 3.13934C112.496 3.13934 113.069 2.56563 113.069 1.84849C113.069 1.11541 112.496 0.541697 111.716 0.541697C110.936 0.541697 110.363 1.11541 110.363 1.83255ZM113.515 1.83255C113.515 2.75686 112.735 3.48994 111.716 3.48994C110.714 3.48994 109.902 2.75686 109.902 1.83255C109.902 0.924172 110.698 0.207031 111.716 0.207031C112.735 0.207031 113.515 0.940108 113.515 1.83255Z" fill="#35342E"/>
</g>
<path d="M129.845 20.096V3.17236H132.145V17.9514H137.002V20.096H129.845Z" fill="#35342E"/>
<path d="M112.405 10H125.324V13H112.405V10Z" fill="#FCED00"/>
<defs>
<clipPath id="clip0">
<rect width="113.515" height="20.0959" fill="white"/>
</clipPath>
</defs>
</svg>
