<svg width="100%" height="100%" viewBox="0 0 1280 2674" fill="none" xmlns="http://www.w3.org/2000/svg">
<path d="M-951.953 1965.75C-453.654 1661.31 -212.912 2102.56 270.762 1807.05C754.436 1511.55 522.479 1064.93 1009.05 767.651C1495.62 470.376 1751.03 902.662 2237.6 605.387" stroke="#FCED00" stroke-width="2" stroke-miterlimit="10"/>
<path d="M-641.509 1846.92C-143.21 1542.47 97.5322 1983.73 581.206 1688.22C1064.88 1392.71 832.924 946.095 1319.49 648.819C1806.06 351.544 2061.48 783.83 2548.05 486.554" stroke="#FCED00" stroke-width="2" stroke-miterlimit="10"/>
<path d="M-1202.62 2232.24C-704.323 1927.8 -463.581 2369.05 20.0931 2073.54C503.767 1778.04 271.811 1331.42 758.38 1034.14C1244.95 736.865 1500.37 1169.15 1986.94 871.876" stroke="#FCED00" stroke-width="2" stroke-miterlimit="10"/>
</svg>
