<svg width="100%" height="100%" viewBox="0 0 22 22" fill="none" xmlns="http://www.w3.org/2000/svg">
<path d="M6.38998 1.6001H16.0214C18.4049 1.6001 20.3371 3.5323 20.3371 5.9158V15.5472C20.3371 17.9307 18.4049 19.8629 16.0214 19.8629H6.38998C4.00648 19.8629 2.07428 17.9307 2.07428 15.5472V5.9158C2.07428 3.5323 4.00648 1.6001 6.38998 1.6001Z" stroke="#221F20" stroke-linecap="round" stroke-linejoin="round"/>
<path d="M14.5576 10.2343C14.6622 10.9394 14.5418 11.6595 14.2135 12.2921C13.8852 12.9248 13.3658 13.4379 12.7291 13.7583C12.0924 14.0788 11.3709 14.1903 10.6672 14.0771C9.9635 13.9638 9.3134 13.6316 8.80939 13.1276C8.30539 12.6236 7.97314 11.9735 7.8599 11.2698C7.74666 10.566 7.8582 9.84454 8.17866 9.20786C8.49911 8.57119 9.01216 8.05177 9.64484 7.72349C10.2775 7.39521 10.9976 7.27478 11.7026 7.37933C12.4218 7.48598 13.0877 7.82111 13.6018 8.33521C14.1159 8.84932 14.451 9.51514 14.5576 10.2343Z" stroke="#221F20" stroke-width="1.2" stroke-linecap="round" stroke-linejoin="round"/>
<path d="M17.2108 5.57996C17.2421 5.7909 17.2061 6.00633 17.1079 6.19561C17.0097 6.3849 16.8543 6.53839 16.6638 6.63426C16.4733 6.73014 16.2575 6.76351 16.0469 6.72963C15.8364 6.69575 15.6419 6.59635 15.4911 6.44556C15.3403 6.29477 15.2409 6.10028 15.207 5.88974C15.1732 5.6792 15.2065 5.46335 15.3024 5.27287C15.3983 5.08239 15.5518 4.92699 15.741 4.82878C15.9303 4.73056 16.1458 4.69453 16.3567 4.72581C16.5719 4.75772 16.7711 4.85798 16.9249 5.01179C17.0787 5.1656 17.1789 5.3648 17.2108 5.57996Z" fill="#221F20"/>
</svg>
