<svg width="209" height="37" viewBox="0 0 209 37" fill="none" xmlns="http://www.w3.org/2000/svg">
<g>
<path d="M31.9914 4.73047H0V36.7652H31.9914V4.73047Z" fill="#35342E"/>
<path d="M15.3292 25.3929C12.7966 21.9491 2.69263 18.8257 2.69263 18.8257C5.012 27.048 13.2498 30.5985 16.5556 31.3193C14.5294 28.276 9.17088 24.0848 9.17088 24.0848C12.4233 25.9535 15.4892 28.6764 17.0354 30.8388C16.9288 30.3582 17.6219 25.4195 21.4342 19.0393C18.635 24.7255 17.8885 30.0379 17.9952 31.0256C31.6182 27.3416 27.086 11.4578 27.086 11.4578C14.7694 15.5956 14.3695 23.6043 15.3292 25.3929Z" fill="#FCED00"/>
<path d="M47.2816 6.39648H40.63V6.48451V19.1895V23.0626V36.5598V36.5892V36.6185H47.8969H54.6364V34.5646H54.5485H51.7062H42.9742L42.9156 34.5353V22.1237H50.2704H53.3471H53.435V21.1554V20.1578H53.3471H50.1825H42.9156V8.42107H50.1239H54.0504H54.1383V6.39648H47.2816Z" fill="#35342E"/>
<path d="M75.3826 36.6185V34.5646H75.2654H74.2692H72.5403H63.8376C63.7204 34.5646 63.6618 34.5353 63.6618 34.3299V23.0626V19.1895V6.54319V6.39648H62.4897H61.3762V6.54319V19.1895V23.0626V36.4425V36.5892V36.6185H68.7311H75.3826Z" fill="#35342E"/>
<path d="M95.8941 36.6185V34.5646H95.7769H94.8099H93.0811H84.3784C84.2612 34.5646 84.2026 34.5353 84.2026 34.3299V23.0626V19.1895V6.54319V6.39648H83.0012H81.8877V6.54319V19.1895V23.0626V36.4425V36.6479H89.2425H95.8941V36.6185Z" fill="#35342E"/>
<path d="M108.494 24.383C112.889 13.996 113.505 12.6463 114.061 11.0032H114.149C114.677 12.617 115.204 13.9374 119.453 24.383L119.482 24.5297H108.435L108.494 24.383ZM127.013 36.6186V36.5305C126.925 36.2371 126.163 34.4473 121.445 23.0627L114.325 5.89771H114.091L106.736 22.9746C101.784 34.5059 100.905 36.3251 100.817 36.5305V36.6186H102.165H103.22V36.5305C103.307 36.2958 104.069 34.5059 107.586 26.437H120.303C123.702 34.5059 124.464 36.2958 124.522 36.5305V36.6186H125.665H127.013Z" fill="#35342E"/>
<path d="M156.432 37H156.637V19.1895V6.4845V6.39647H155.582H154.498V6.4845V19.1895V31.3957H154.41C152.945 29.4298 151.832 28.1094 150.249 26.2022C147.378 22.7985 142.338 16.6954 133.284 5.927H133.137H133.049V23.0626V36.5598V36.6479H134.133H135.188V36.5598V23.0626V11.59H135.217C136.976 13.996 138.06 15.199 139.789 17.2529C142.748 20.7446 147.671 26.6716 156.432 37Z" fill="#35342E"/>
<path d="M164.022 13.732C164.022 16.4021 164.842 18.0452 167.421 20.4806C168.798 21.7716 169.999 22.5638 171.494 23.8255C173.721 25.6447 174.482 27.2292 174.482 29.3418C174.482 32.9215 171.142 35.0341 167.801 35.0341C166.659 35.0341 165.516 34.8874 164.754 34.7113C164.227 34.594 163.758 34.4766 163.435 34.3592H163.348C163.318 34.8874 163.318 35.1221 163.23 36.5012C164.256 36.7653 166.014 37.0293 167.391 37.0293C174.014 37.0293 176.885 32.7748 176.885 29.3125V29.2538C176.885 25.8795 175.274 23.9429 172.871 21.8303C171.23 20.3925 169.882 19.5416 168.475 18.1332C167.128 16.8128 166.424 15.4631 166.424 13.5559C166.424 10.3577 169.267 8.24504 172.988 8.24504C173.428 8.24504 174.131 8.27438 174.629 8.36241C175.01 8.39175 175.567 8.50912 175.889 8.62649H175.977C176.006 7.8636 176.065 7.18874 176.094 6.57256C175.391 6.36717 174.336 6.22046 172.841 6.22046C167.362 6.2498 164.022 9.80016 164.022 13.732Z" fill="#35342E"/>
<path d="M190.364 6.39651H183.713V6.45519V19.1602V23.0333V36.5012V36.5892H190.979H197.69V34.5353H197.602H194.789H186.057L186.027 34.4766V22.1237H193.382H196.459H196.547V21.1554V20.1578H196.459H193.294H186.027V8.42109H193.206H197.133H197.221V6.39651H190.364ZM193.324 0L188.372 3.99048L189.016 4.87074L194.466 1.76051L193.324 0Z" fill="#35342E"/>
<path d="M205.191 3.25684H205.542C205.953 3.25684 206.304 3.13948 206.304 2.81672C206.304 2.55264 206.099 2.34725 205.601 2.34725C205.396 2.34725 205.279 2.37659 205.191 2.37659V3.25684ZM205.191 4.95867H204.429V1.9658C204.722 1.90712 205.132 1.87778 205.66 1.87778C206.275 1.87778 206.539 1.9658 206.773 2.08317C206.949 2.20054 207.095 2.43527 207.095 2.72869C207.095 3.05145 206.832 3.31553 206.421 3.43289V3.46224C206.744 3.5796 206.92 3.785 207.007 4.19578C207.095 4.66525 207.154 4.8413 207.242 4.95867H206.421C206.333 4.8413 206.275 4.57722 206.158 4.22512C206.099 3.90236 205.894 3.75565 205.484 3.75565H205.132V4.95867H205.191ZM203.198 3.37421C203.198 4.72393 204.253 5.78024 205.718 5.78024C207.125 5.78024 208.18 4.72393 208.18 3.40355C208.18 2.05383 207.125 0.997525 205.689 0.997525C204.253 0.997525 203.198 2.05383 203.198 3.37421ZM209 3.37421C209 5.07603 207.564 6.42576 205.689 6.42576C203.843 6.42576 202.348 5.07603 202.348 3.37421C202.348 1.70173 203.813 0.381348 205.689 0.381348C207.564 0.381348 209 1.73107 209 3.37421Z" fill="#35342E"/>
</g>
<defs>
<clipPath id="clip0">
<rect width="209" height="37" fill="white"/>
</clipPath>
</defs>
</svg>
