<svg width="229" height="31" viewBox="0 0 229 31" fill="none" xmlns="http://www.w3.org/2000/svg">
<path d="M36.0995 30.8506H34.0939V0.883854H44.567C50.5892 0.883854 53.7412 5.69188 53.7412 10.4311C53.7412 12.9222 52.9291 15.241 51.4522 16.9711C49.7754 18.9405 47.3919 19.983 44.567 19.983H36.0995V30.8506ZM36.0995 17.9989H44.5652C46.7997 17.9989 48.669 17.1921 49.9716 15.6609C51.1342 14.2948 51.781 12.4446 51.781 10.4531C51.781 6.82237 49.5192 2.90462 44.5661 2.90462H36.1004L36.0995 17.9989ZM72.5519 30.8506H55.5715L55.4915 30.1602V0.920529H72.471V2.90462H57.4971V14.8513H72.1459V16.8803H57.4971V28.8665H72.5519V30.8506ZM93.3946 30.8506H92.2046L78.7486 18.5793V16.9803H84.9361C87.1734 16.9803 89.0509 16.2193 90.3553 14.789C91.5089 13.5145 92.1492 11.7945 92.1492 9.94245C92.1492 6.55281 89.892 2.90553 84.937 2.90553H76.4296V30.8515H74.4648V0.883854H84.938C90.962 0.883854 94.1121 5.43149 94.1121 9.92411C94.1121 12.285 93.2946 14.4882 91.8104 16.1258C90.1318 17.9806 87.7565 18.9589 84.937 18.9589H82.1221L95.1685 30.8597L93.3927 30.8506H93.3946ZM98.0725 30.8506H96.1105V0.920529H112.718V2.90462H98.0725V14.8513H111.018V16.8803H98.0725V30.8506ZM131.327 30.8506H114.353L114.266 30.1602V0.920529H131.243V2.90462H116.272V14.8513H130.926V16.8803H116.271V28.8665H131.326L131.327 30.8506ZM147.23 30.89C151.129 30.89 154.782 29.3203 157.512 26.4725C158.811 25.1156 159.867 23.5047 160.564 21.8039L160.955 20.8595H158.806L158.627 21.2721C158.061 22.5988 157.201 23.8668 156.092 25.0312C153.726 27.504 150.572 28.8665 147.23 28.8665C143.887 28.8665 140.742 27.5049 138.366 25.0266C135.989 22.586 134.678 19.3439 134.678 15.9066C134.678 12.5124 135.988 9.2713 138.368 6.78569C140.717 4.33492 143.862 2.98989 147.229 2.98989C150.601 2.98989 153.746 4.33492 156.088 6.78569L157.512 5.38106C154.781 2.53696 151.128 0.965455 147.23 0.965455C143.333 0.965455 139.678 2.53604 136.95 5.38014C134.219 8.227 132.717 11.9696 132.717 15.9057C132.717 19.8721 134.219 23.6257 136.95 26.4707C139.679 29.3194 143.335 30.89 147.23 30.89ZM170.269 30.9688H168.304V2.9037H158.51V0.883854H180.062V2.90462H170.268L170.269 30.9688ZM201.823 30.8506H199.822V16.6722H183.409V30.8506H181.45V0.920529H183.41V14.6881H199.822V0.920529H201.823V30.8506ZM228.614 30.8506H226.47L222.584 21.2492H209.177L205.329 30.8506H203.19L215.098 0.476768H216.711L228.614 30.8506ZM209.989 19.2614H221.811L215.882 3.915L209.99 19.2633L209.989 19.2614ZM229 2.31691C229 3.60693 227.963 4.6384 226.652 4.6384C225.344 4.6384 224.295 3.60693 224.295 2.31691C224.295 1.0168 225.342 0 226.67 0C227.964 0 229 1.01772 229 2.31691ZM224.88 2.31691C224.88 3.34379 225.649 4.1598 226.669 4.1598C227.658 4.17355 228.415 3.34379 228.415 2.32608C228.415 1.29919 227.657 0.466682 226.639 0.466682C225.649 0.466682 224.88 1.29828 224.88 2.31691ZM226.288 3.5125H225.759V1.19925C225.97 1.17633 226.261 1.13141 226.64 1.13141C227.07 1.13141 227.271 1.19925 227.423 1.31203C227.562 1.41655 227.657 1.58342 227.657 1.80347C227.657 2.09136 227.449 2.27107 227.185 2.35817V2.38567C227.405 2.45627 227.519 2.63873 227.585 2.94679C227.657 3.30254 227.71 3.42723 227.757 3.51341H227.196C227.127 3.42723 227.084 3.22919 227.014 2.94679C226.974 2.70841 226.835 2.59563 226.539 2.59563H226.289L226.288 3.5125ZM226.302 2.21239H226.554C226.85 2.21239 227.086 2.11612 227.086 1.87682C227.086 1.66319 226.935 1.52382 226.592 1.52382C226.458 1.52382 226.36 1.53574 226.301 1.55133V2.21147L226.302 2.21239Z" fill="#35342E"/>
<path d="M0 0.0018823V31H3.46742C4.63942 29.9601 8.67463 26.0347 11.4986 19.0009C11.4986 19.0009 11.9282 18.9209 12.5259 18.8277C13.2879 18.7148 14.331 18.5859 15.193 18.5859C16.3155 18.5859 17.8237 18.8042 18.5642 18.9247C18.8406 18.9689 19.0153 19 19.0153 19C21.8393 26.0366 25.8726 29.961 27.0465 30.9991H30.908V0H0V0.0018823ZM17.636 16.683C17.0336 16.6058 16.0437 16.5042 15.108 16.5042C14.4599 16.5042 13.866 16.555 13.3757 16.6105C12.75 16.6811 12.3148 16.7611 12.3148 16.7611C13.5382 13.055 14.3899 8.62052 14.3899 3.41809V2.13349H16.1315V3.41809C16.1315 8.6224 16.9776 13.055 18.2019 16.763C18.2019 16.763 17.9833 16.7272 17.635 16.683" fill="#35342E"/>
<path d="M15.6946 25.9829C18.1226 25.9829 19.9874 26.5853 21.5561 27.636L21.6606 27.6974C22.5262 28.9114 23.4418 30.0079 24.3811 31H7.02458C8.00104 29.9713 8.9448 28.8343 9.83134 27.5782C11.3955 26.5697 13.3021 25.9829 15.6946 25.9829Z" fill="#35342E"/>
</svg>
