<?xml version="1.0" standalone="no"?>
<!DOCTYPE svg PUBLIC "-//W3C//DTD SVG 20010904//EN"
 "http://www.w3.org/TR/2001/REC-SVG-20010904/DTD/svg10.dtd">
<svg version="1.0" xmlns="http://www.w3.org/2000/svg"
 width="700.000000pt" height="700.000000pt" viewBox="0 0 700.000000 700.000000"
 preserveAspectRatio="xMidYMid meet">
<metadata>
Created by potrace 1.11, written by Peter Selinger 2001-2013
</metadata>
<g transform="translate(0.000000,700.000000) scale(0.100000,-0.100000)"
fill="#000000" stroke="none">
<path d="M933 3715 c-43 -18 -53 -42 -53 -120 0 -59 3 -69 28 -92 15 -14 62
-43 104 -64 43 -21 82 -48 88 -58 19 -36 12 -90 -15 -116 -40 -41 -133 -30
-167 19 -4 6 -8 23 -8 39 0 17 -5 27 -15 27 -12 0 -15 -14 -15 -70 0 -66 12
-92 26 -55 5 13 10 13 36 -1 39 -20 104 -22 145 -5 52 21 76 70 71 141 -5 74
-23 95 -127 151 -100 54 -111 64 -111 109 0 48 28 75 80 75 49 0 92 -31 105
-73 17 -56 35 -39 35 33 0 51 -3 65 -15 65 -8 0 -15 -6 -15 -14 0 -11 -8 -10
-37 5 -44 22 -95 24 -140 4z"/>
<path d="M3052 3709 c-48 -24 -88 -71 -108 -126 -18 -52 -17 -170 2 -225 18
-54 73 -114 123 -136 47 -20 138 -19 176 0 45 24 79 64 71 84 -6 15 -13 12
-47 -22 -38 -37 -43 -39 -102 -39 -113 0 -167 66 -175 213 -5 99 12 156 63
201 77 67 190 43 214 -45 4 -16 15 -30 24 -32 15 -3 17 6 17 67 0 56 -3 71
-15 71 -8 0 -15 -9 -15 -20 0 -25 -4 -25 -40 2 -44 32 -132 36 -188 7z"/>
<path d="M1550 3705 c0 -9 9 -15 25 -15 l25 0 0 -225 0 -225 -25 0 c-16 0 -25
-6 -25 -15 0 -12 16 -15 80 -15 64 0 80 3 80 15 0 9 -9 15 -25 15 l-25 0 0
225 0 225 25 0 c16 0 25 6 25 15 0 12 -16 15 -80 15 -64 0 -80 -3 -80 -15z"/>
<path d="M2090 3705 c0 -9 9 -15 25 -15 l25 0 0 -225 0 -225 -25 0 c-16 0 -25
-6 -25 -15 0 -12 14 -15 70 -15 56 0 70 3 70 15 0 9 -9 15 -25 15 l-25 0 0
196 0 197 153 -211 c83 -116 155 -211 160 -212 4 0 7 108 7 239 l0 240 27 3
c14 2 28 9 31 16 3 9 -16 12 -72 12 -61 0 -76 -3 -76 -15 0 -10 10 -15 30 -15
l30 0 0 -175 c0 -96 -2 -175 -4 -175 -2 0 -66 86 -141 190 l-136 190 -50 0
c-37 0 -49 -4 -49 -15z"/>
<path d="M3710 3705 c0 -9 9 -15 25 -15 l25 0 0 -225 0 -225 -25 0 c-16 0 -25
-6 -25 -15 0 -13 24 -15 160 -15 l160 0 0 66 c0 57 -2 65 -17 62 -13 -2 -19
-14 -21 -41 l-3 -37 -90 0 -89 0 0 215 0 215 30 0 c20 0 30 5 30 15 0 12 -16
15 -80 15 -64 0 -80 -3 -80 -15z"/>
<path d="M4603 3703 c-5 -10 -42 -117 -83 -238 -66 -193 -78 -220 -97 -223
-13 -2 -23 -10 -23 -18 0 -12 13 -14 62 -12 38 2 63 8 66 16 2 7 -6 12 -22 12
-31 0 -31 1 -7 65 l19 50 94 3 94 3 17 -48 c22 -62 21 -73 -3 -73 -11 0 -20
-7 -20 -15 0 -12 15 -15 75 -15 58 0 75 3 75 14 0 8 -10 16 -22 18 -20 3 -34
34 -108 237 -47 129 -91 236 -97 239 -7 2 -16 -5 -20 -15z m51 -199 c20 -55
36 -104 36 -107 0 -4 -36 -7 -81 -7 -61 0 -80 3 -76 13 2 6 19 58 38 114 18
57 36 99 40 95 3 -4 22 -52 43 -108z"/>
<path d="M5210 3705 c0 -9 9 -15 25 -15 l25 0 0 -225 0 -225 -25 0 c-16 0 -25
-6 -25 -15 0 -12 16 -15 80 -15 64 0 80 3 80 15 0 9 -9 15 -25 15 l-25 0 0
225 0 225 25 0 c16 0 25 6 25 15 0 12 -16 15 -80 15 -64 0 -80 -3 -80 -15z"/>
<path d="M5750 3705 c0 -9 9 -15 25 -15 l25 0 0 -225 0 -225 -25 0 c-16 0 -25
-6 -25 -15 0 -13 13 -15 77 -13 47 2 78 7 80 15 3 7 -8 13 -24 15 l-28 3 -3
89 c-2 49 1 93 6 98 5 5 20 6 33 3 17 -4 35 -27 64 -83 53 -102 89 -142 126
-142 35 0 38 21 7 42 -13 9 -44 56 -71 105 l-47 91 25 16 c83 55 85 186 3 236
-28 17 -50 20 -140 20 -89 0 -108 -3 -108 -15z m221 -44 c24 -25 29 -38 29
-80 0 -71 -28 -102 -98 -109 l-52 -5 0 112 0 111 46 0 c37 0 51 -5 75 -29z"/>
<path d="M3741 2906 c-245 -283 -660 -554 -1057 -689 -588 -201 -1019 -100
-1060 249 -9 70 11 173 51 272 18 45 32 82 30 82 -12 0 -99 -179 -127 -260
-29 -84 -32 -107 -33 -205 0 -103 2 -114 32 -177 56 -119 163 -198 328 -244
93 -26 366 -31 518 -9 211 29 467 101 732 205 242 95 625 304 850 463 94 67
334 262 420 342 l70 64 -336 1 -336 0 -82 -94z"/>
</g>
</svg>
